M48
; DRILL file {KiCad 7.0.5} date Sun Jun  8 17:34:10 2025
; FORMAT={-:-/ absolute / metric / decimal}
; #@! TF.CreationDate,2025-06-08T17:34:10+01:00
; #@! TF.GenerationSoftware,Kicad,Pcbnew,7.0.5
; #@! TF.FileFunction,Plated,1,2,PTH
FMAT,2
METRIC
; #@! TA.AperFunction,Plated,PTH,ComponentDrill
T1C0.400
; #@! TA.AperFunction,Plated,PTH,ComponentDrill
T2C1.000
; #@! TA.AperFunction,Plated,PTH,ComponentDrill
T3C1.300
; #@! TA.AperFunction,Plated,PTH,ComponentDrill
T4C2.200
%
G90
G05
T1
X51.371Y-35.021
X51.468Y-41.228
X51.855Y-33.855
X51.855Y-36.188
X51.951Y-40.061
X51.951Y-42.395
X53.021Y-33.371
X53.021Y-36.671
X53.118Y-39.578
X53.118Y-42.878
X54.188Y-33.855
X54.188Y-36.188
X54.285Y-40.061
X54.285Y-42.395
X54.671Y-35.021
X54.768Y-41.228
X93.272Y-41.222
X93.333Y-35.233
X93.755Y-40.055
X93.755Y-42.389
X93.817Y-34.067
X93.817Y-36.4
X94.922Y-39.572
X94.922Y-42.872
X94.983Y-33.583
X94.983Y-36.883
X96.089Y-40.055
X96.089Y-42.389
X96.15Y-34.067
X96.15Y-36.4
X96.572Y-41.222
X96.633Y-35.233
T2
X87.068Y-36.13
X87.068Y-41.13
T3
X58.098Y-34.068
X61.098Y-34.068
T4
X53.021Y-35.021
X53.118Y-41.228
X94.922Y-41.222
X94.983Y-35.233
T0
M30
