G04 #@! TF.GenerationSoftware,KiCad,Pcbnew,7.0.5*
G04 #@! TF.CreationDate,2025-06-09T15:25:12+01:00*
G04 #@! TF.ProjectId,boost monostable,626f6f73-7420-46d6-9f6e-6f737461626c,rev?*
G04 #@! TF.SameCoordinates,Original*
G04 #@! TF.FileFunction,Copper,L2,Bot*
G04 #@! TF.FilePolarity,Positive*
%FSLAX46Y46*%
G04 Gerber Fmt 4.6, Leading zero omitted, Abs format (unit mm)*
G04 Created by KiCad (PCBNEW 7.0.5) date 2025-06-09 15:25:12*
%MOMM*%
%LPD*%
G01*
G04 APERTURE LIST*
G04 Aperture macros list*
%AMRoundRect*
0 Rectangle with rounded corners*
0 $1 Rounding radius*
0 $2 $3 $4 $5 $6 $7 $8 $9 X,Y pos of 4 corners*
0 Add a 4 corners polygon primitive as box body*
4,1,4,$2,$3,$4,$5,$6,$7,$8,$9,$2,$3,0*
0 Add four circle primitives for the rounded corners*
1,1,$1+$1,$2,$3*
1,1,$1+$1,$4,$5*
1,1,$1+$1,$6,$7*
1,1,$1+$1,$8,$9*
0 Add four rect primitives between the rounded corners*
20,1,$1+$1,$2,$3,$4,$5,0*
20,1,$1+$1,$4,$5,$6,$7,0*
20,1,$1+$1,$6,$7,$8,$9,0*
20,1,$1+$1,$8,$9,$2,$3,0*%
G04 Aperture macros list end*
G04 #@! TA.AperFunction,ComponentPad*
%ADD10C,0.700000*%
G04 #@! TD*
G04 #@! TA.AperFunction,ComponentPad*
%ADD11C,4.400000*%
G04 #@! TD*
G04 #@! TA.AperFunction,ComponentPad*
%ADD12C,2.600000*%
G04 #@! TD*
G04 #@! TA.AperFunction,ComponentPad*
%ADD13R,2.000000X2.000000*%
G04 #@! TD*
G04 #@! TA.AperFunction,ComponentPad*
%ADD14C,2.000000*%
G04 #@! TD*
G04 #@! TA.AperFunction,SMDPad,CuDef*
%ADD15RoundRect,0.250000X-0.625000X0.312500X-0.625000X-0.312500X0.625000X-0.312500X0.625000X0.312500X0*%
G04 #@! TD*
G04 #@! TA.AperFunction,SMDPad,CuDef*
%ADD16RoundRect,0.150000X0.150000X-0.587500X0.150000X0.587500X-0.150000X0.587500X-0.150000X-0.587500X0*%
G04 #@! TD*
G04 #@! TA.AperFunction,SMDPad,CuDef*
%ADD17RoundRect,0.150000X0.587500X0.150000X-0.587500X0.150000X-0.587500X-0.150000X0.587500X-0.150000X0*%
G04 #@! TD*
G04 #@! TA.AperFunction,SMDPad,CuDef*
%ADD18RoundRect,0.250000X-0.850000X-0.350000X0.850000X-0.350000X0.850000X0.350000X-0.850000X0.350000X0*%
G04 #@! TD*
G04 #@! TA.AperFunction,SMDPad,CuDef*
%ADD19RoundRect,0.250000X-1.275000X-1.125000X1.275000X-1.125000X1.275000X1.125000X-1.275000X1.125000X0*%
G04 #@! TD*
G04 #@! TA.AperFunction,SMDPad,CuDef*
%ADD20RoundRect,0.249997X-2.950003X-2.650003X2.950003X-2.650003X2.950003X2.650003X-2.950003X2.650003X0*%
G04 #@! TD*
G04 #@! TA.AperFunction,SMDPad,CuDef*
%ADD21RoundRect,0.250000X0.450000X-0.262500X0.450000X0.262500X-0.450000X0.262500X-0.450000X-0.262500X0*%
G04 #@! TD*
G04 #@! TA.AperFunction,SMDPad,CuDef*
%ADD22RoundRect,0.225000X-0.375000X0.225000X-0.375000X-0.225000X0.375000X-0.225000X0.375000X0.225000X0*%
G04 #@! TD*
G04 #@! TA.AperFunction,SMDPad,CuDef*
%ADD23RoundRect,0.250000X0.312500X0.625000X-0.312500X0.625000X-0.312500X-0.625000X0.312500X-0.625000X0*%
G04 #@! TD*
G04 #@! TA.AperFunction,SMDPad,CuDef*
%ADD24RoundRect,0.250000X-0.262500X-0.450000X0.262500X-0.450000X0.262500X0.450000X-0.262500X0.450000X0*%
G04 #@! TD*
G04 #@! TA.AperFunction,SMDPad,CuDef*
%ADD25RoundRect,0.250000X0.625000X-0.312500X0.625000X0.312500X-0.625000X0.312500X-0.625000X-0.312500X0*%
G04 #@! TD*
G04 #@! TA.AperFunction,SMDPad,CuDef*
%ADD26RoundRect,0.250000X1.000000X0.650000X-1.000000X0.650000X-1.000000X-0.650000X1.000000X-0.650000X0*%
G04 #@! TD*
G04 #@! TA.AperFunction,SMDPad,CuDef*
%ADD27RoundRect,0.250000X-0.312500X-0.625000X0.312500X-0.625000X0.312500X0.625000X-0.312500X0.625000X0*%
G04 #@! TD*
G04 #@! TA.AperFunction,Conductor*
%ADD28C,0.762000*%
G04 #@! TD*
G04 #@! TA.AperFunction,Conductor*
%ADD29C,1.270000*%
G04 #@! TD*
G04 #@! TA.AperFunction,Conductor*
%ADD30C,2.286000*%
G04 #@! TD*
G04 APERTURE END LIST*
D10*
G04 #@! TO.P,GNDin1,1,1*
G04 #@! TO.N,Earth*
X51468000Y-41228000D03*
X51951274Y-40061274D03*
X51951274Y-42394726D03*
X53118000Y-39578000D03*
D11*
X53118000Y-41228000D03*
D10*
X53118000Y-42878000D03*
X54284726Y-40061274D03*
X54284726Y-42394726D03*
X54768000Y-41228000D03*
G04 #@! TD*
D12*
G04 #@! TO.P,L1,1,1*
G04 #@! TO.N,Net-(L1-Pad1)*
X58098000Y-34068000D03*
G04 #@! TO.P,L1,2,2*
G04 #@! TO.N,Net-(D1-A)*
X61098000Y-34068000D03*
G04 #@! TD*
D10*
G04 #@! TO.P,GNDout1,1,1*
G04 #@! TO.N,Earth*
X93272000Y-41222000D03*
X93755274Y-40055274D03*
X93755274Y-42388726D03*
X94922000Y-39572000D03*
D11*
X94922000Y-41222000D03*
D10*
X94922000Y-42872000D03*
X96088726Y-40055274D03*
X96088726Y-42388726D03*
X96572000Y-41222000D03*
G04 #@! TD*
D13*
G04 #@! TO.P,C3,1*
G04 #@! TO.N,Net-(D1-K)*
X87068000Y-36130323D03*
D14*
G04 #@! TO.P,C3,2*
G04 #@! TO.N,Earth*
X87068000Y-41130323D03*
G04 #@! TD*
D10*
G04 #@! TO.P,Vcc/Vin1,1,1*
G04 #@! TO.N,Net-(L1-Pad1)*
X51371274Y-35021274D03*
X51854548Y-33854548D03*
X51854548Y-36188000D03*
X53021274Y-33371274D03*
D11*
X53021274Y-35021274D03*
D10*
X53021274Y-36671274D03*
X54188000Y-33854548D03*
X54188000Y-36188000D03*
X54671274Y-35021274D03*
G04 #@! TD*
G04 #@! TO.P,Vout1,1,1*
G04 #@! TO.N,Net-(D1-K)*
X93333274Y-35233274D03*
X93816548Y-34066548D03*
X93816548Y-36400000D03*
X94983274Y-33583274D03*
D11*
X94983274Y-35233274D03*
D10*
X94983274Y-36883274D03*
X96150000Y-34066548D03*
X96150000Y-36400000D03*
X96633274Y-35233274D03*
G04 #@! TD*
D15*
G04 #@! TO.P,R1,1*
G04 #@! TO.N,Net-(L1-Pad1)*
X57578000Y-36858000D03*
G04 #@! TO.P,R1,2*
G04 #@! TO.N,Net-(Q3-C)*
X57578000Y-39783000D03*
G04 #@! TD*
G04 #@! TO.P,R5,1*
G04 #@! TO.N,Net-(L1-Pad1)*
X73228000Y-36758000D03*
G04 #@! TO.P,R5,2*
G04 #@! TO.N,Net-(Q2-C)*
X73228000Y-39683000D03*
G04 #@! TD*
G04 #@! TO.P,R3,1*
G04 #@! TO.N,Net-(L1-Pad1)*
X62818000Y-36828000D03*
G04 #@! TO.P,R3,2*
G04 #@! TO.N,Net-(Q3-B)*
X62818000Y-39753000D03*
G04 #@! TD*
D16*
G04 #@! TO.P,Q2,1,B*
G04 #@! TO.N,Net-(Q1-C)*
X75818000Y-43448000D03*
G04 #@! TO.P,Q2,2,E*
G04 #@! TO.N,Earth*
X73918000Y-43448000D03*
G04 #@! TO.P,Q2,3,C*
G04 #@! TO.N,Net-(Q2-C)*
X74868000Y-41573000D03*
G04 #@! TD*
D17*
G04 #@! TO.P,Q1,1,B*
G04 #@! TO.N,Net-(Q1-B)*
X72008000Y-41320500D03*
G04 #@! TO.P,Q1,2,E*
G04 #@! TO.N,Earth*
X72008000Y-43220500D03*
G04 #@! TO.P,Q1,3,C*
G04 #@! TO.N,Net-(Q1-C)*
X70133000Y-42270500D03*
G04 #@! TD*
D18*
G04 #@! TO.P,Q4,1,G*
G04 #@! TO.N,Net-(Q4-G)*
X64713000Y-33703000D03*
D19*
G04 #@! TO.P,Q4,2,D*
G04 #@! TO.N,Net-(D1-A)*
X69338000Y-29898000D03*
X69338000Y-32948000D03*
D20*
X71013000Y-31423000D03*
D19*
X72688000Y-29898000D03*
X72688000Y-32948000D03*
D18*
G04 #@! TO.P,Q4,3,S*
G04 #@! TO.N,Earth*
X64713000Y-29143000D03*
G04 #@! TD*
D21*
G04 #@! TO.P,C1,1*
G04 #@! TO.N,Net-(Q3-C)*
X60958000Y-43680500D03*
G04 #@! TO.P,C1,2*
G04 #@! TO.N,Net-(C1-Pad2)*
X60958000Y-41855500D03*
G04 #@! TD*
D15*
G04 #@! TO.P,R7,1*
G04 #@! TO.N,Net-(D1-K)*
X89548000Y-36725500D03*
G04 #@! TO.P,R7,2*
G04 #@! TO.N,Earth*
X89548000Y-39650500D03*
G04 #@! TD*
D22*
G04 #@! TO.P,D2,1,K*
G04 #@! TO.N,Net-(D1-K)*
X84738000Y-35768000D03*
G04 #@! TO.P,D2,2,A*
G04 #@! TO.N,Net-(D2-A)*
X84738000Y-39068000D03*
G04 #@! TD*
D23*
G04 #@! TO.P,R8,1*
G04 #@! TO.N,Net-(D2-A)*
X82440500Y-40958000D03*
G04 #@! TO.P,R8,2*
G04 #@! TO.N,Earth*
X79515500Y-40958000D03*
G04 #@! TD*
D17*
G04 #@! TO.P,Q5,1,B*
G04 #@! TO.N,Net-(Q5-B)*
X79833000Y-35768000D03*
G04 #@! TO.P,Q5,2,E*
G04 #@! TO.N,Earth*
X79833000Y-37668000D03*
G04 #@! TO.P,Q5,3,C*
G04 #@! TO.N,Net-(Q4-G)*
X77958000Y-36718000D03*
G04 #@! TD*
D24*
G04 #@! TO.P,C2,1*
G04 #@! TO.N,Net-(Q3-B)*
X63955500Y-41530500D03*
G04 #@! TO.P,C2,2*
G04 #@! TO.N,Net-(Q1-C)*
X65780500Y-41530500D03*
G04 #@! TD*
D16*
G04 #@! TO.P,Q3,1,B*
G04 #@! TO.N,Net-(Q3-B)*
X59078000Y-43795500D03*
G04 #@! TO.P,Q3,2,E*
G04 #@! TO.N,Earth*
X57178000Y-43795500D03*
G04 #@! TO.P,Q3,3,C*
G04 #@! TO.N,Net-(Q3-C)*
X58128000Y-41920500D03*
G04 #@! TD*
D25*
G04 #@! TO.P,J02,1*
G04 #@! TO.N,Net-(J01-Pad2)*
X67788000Y-43003000D03*
G04 #@! TO.P,J02,2*
G04 #@! TO.N,Net-(Q1-B)*
X67788000Y-40078000D03*
G04 #@! TD*
G04 #@! TO.P,R6,1*
G04 #@! TO.N,Net-(Q2-C)*
X75648000Y-39668000D03*
G04 #@! TO.P,R6,2*
G04 #@! TO.N,Net-(Q4-G)*
X75648000Y-36743000D03*
G04 #@! TD*
D15*
G04 #@! TO.P,R4,1*
G04 #@! TO.N,Net-(L1-Pad1)*
X65408000Y-36785500D03*
G04 #@! TO.P,R4,2*
G04 #@! TO.N,Net-(Q1-C)*
X65408000Y-39710500D03*
G04 #@! TD*
G04 #@! TO.P,R9,1*
G04 #@! TO.N,Net-(Q5-B)*
X82158000Y-35875500D03*
G04 #@! TO.P,R9,2*
G04 #@! TO.N,Net-(D2-A)*
X82158000Y-38800500D03*
G04 #@! TD*
D26*
G04 #@! TO.P,D1,1,K*
G04 #@! TO.N,Net-(D1-K)*
X80375500Y-33168000D03*
G04 #@! TO.P,D1,2,A*
G04 #@! TO.N,Net-(D1-A)*
X76375500Y-33168000D03*
G04 #@! TD*
D27*
G04 #@! TO.P,J01,1*
G04 #@! TO.N,Net-(C1-Pad2)*
X62813000Y-43790500D03*
G04 #@! TO.P,J01,2*
G04 #@! TO.N,Net-(J01-Pad2)*
X65738000Y-43790500D03*
G04 #@! TD*
D15*
G04 #@! TO.P,R2,1*
G04 #@! TO.N,Net-(L1-Pad1)*
X60248000Y-36865500D03*
G04 #@! TO.P,R2,2*
G04 #@! TO.N,Net-(C1-Pad2)*
X60248000Y-39790500D03*
G04 #@! TD*
D28*
G04 #@! TO.N,Net-(Q3-C)*
X60958000Y-43505500D02*
X60683000Y-43505500D01*
X59098000Y-41920500D02*
X58128000Y-41920500D01*
D29*
X58128000Y-41920500D02*
X57558000Y-41350500D01*
X57558000Y-41350500D02*
X57558000Y-39803000D01*
D28*
X60683000Y-43505500D02*
X59098000Y-41920500D01*
D29*
G04 #@! TO.N,Net-(Q1-B)*
X70338000Y-39990500D02*
X67558000Y-39990500D01*
X70788000Y-39990500D02*
X70338000Y-39990500D01*
X71978000Y-41180500D02*
X70788000Y-39990500D01*
G04 #@! TO.N,Net-(Q3-B)*
X63628000Y-45500500D02*
X64338000Y-44790500D01*
X59108000Y-44970500D02*
X59638000Y-45500500D01*
X64298000Y-41930500D02*
X62508000Y-40140500D01*
X64338000Y-44800500D02*
X64338000Y-41970500D01*
X59108000Y-43825500D02*
X59108000Y-44970500D01*
X64338000Y-41970500D02*
X64298000Y-41930500D01*
X59638000Y-45500500D02*
X63628000Y-45500500D01*
X62508000Y-40140500D02*
X62508000Y-39763000D01*
X59078000Y-43795500D02*
X59108000Y-43825500D01*
G04 #@! TO.N,Net-(Q1-C)*
X77658000Y-41608000D02*
X77658000Y-38818000D01*
X65780500Y-40243000D02*
X65780500Y-41530500D01*
X66958000Y-38160500D02*
X65408000Y-39710500D01*
X77000500Y-38160500D02*
X66958000Y-38160500D01*
X69778000Y-41530500D02*
X69818000Y-41570500D01*
X77658000Y-38818000D02*
X77000500Y-38160500D01*
X65780500Y-40673000D02*
X65780500Y-40243000D01*
X65408000Y-39710500D02*
X65408000Y-39870500D01*
X75818000Y-43448000D02*
X77658000Y-41608000D01*
X65408000Y-39870500D02*
X65780500Y-40243000D01*
X65780500Y-41530500D02*
X69778000Y-41530500D01*
D30*
G04 #@! TO.N,Net-(D1-K)*
X84161750Y-34613000D02*
X94529000Y-34613000D01*
X89581250Y-34896000D02*
X95169298Y-34896000D01*
X94529000Y-34613000D02*
X94812000Y-34896000D01*
X89896750Y-36495500D02*
X88939250Y-35538000D01*
D29*
X94820548Y-35126000D02*
X94931274Y-35015274D01*
X88590500Y-35768000D02*
X89548000Y-36725500D01*
D30*
X82736750Y-33168000D02*
X80375500Y-33168000D01*
X94812000Y-34896000D02*
X89581250Y-34896000D01*
X84973000Y-35423000D02*
X83703000Y-34153000D01*
X84006750Y-34458000D02*
X84161750Y-34613000D01*
X88939250Y-35538000D02*
X89581250Y-34896000D01*
X85054375Y-35963000D02*
X95421625Y-35963000D01*
X84006750Y-34438000D02*
X82736750Y-33168000D01*
D29*
G04 #@! TO.N,Earth*
X79833000Y-37668000D02*
X79833000Y-40640500D01*
X62158000Y-29143000D02*
X59673000Y-31628000D01*
X57528000Y-43673000D02*
X57528000Y-45508000D01*
X83312000Y-43180000D02*
X78846000Y-43180000D01*
X85361677Y-41130323D02*
X83312000Y-43180000D01*
X93350500Y-39650500D02*
X94922000Y-41222000D01*
X57528000Y-45508000D02*
X59210500Y-47190500D01*
X51778000Y-31628000D02*
X49778000Y-33628000D01*
X88068177Y-41130323D02*
X89548000Y-39650500D01*
X64328000Y-47190500D02*
X65858000Y-45660500D01*
X53118000Y-39578000D02*
X53118000Y-41228000D01*
X59673000Y-31628000D02*
X51778000Y-31628000D01*
X87068000Y-41130323D02*
X85361677Y-41130323D01*
X79833000Y-40640500D02*
X79515500Y-40958000D01*
X64713000Y-29143000D02*
X62158000Y-29143000D01*
X79515500Y-42510500D02*
X78846000Y-43180000D01*
X53248000Y-41228000D02*
X53118000Y-41228000D01*
X68424250Y-45074250D02*
X69888000Y-43610500D01*
X65858000Y-45660500D02*
X67838000Y-45660500D01*
X89548000Y-39650500D02*
X93350500Y-39650500D01*
X59210500Y-47190500D02*
X64328000Y-47190500D01*
X87068000Y-41130323D02*
X88068177Y-41130323D01*
X79515500Y-40958000D02*
X79515500Y-42510500D01*
X67838000Y-45660500D02*
X68424250Y-45074250D01*
X68070500Y-45428000D02*
X68424250Y-45074250D01*
X76598000Y-45428000D02*
X68070500Y-45428000D01*
X57528000Y-45508000D02*
X53248000Y-41228000D01*
X49778000Y-33628000D02*
X49778000Y-36478000D01*
X78846000Y-43180000D02*
X76598000Y-45428000D01*
X49778000Y-36478000D02*
X52878000Y-39578000D01*
X52878000Y-39578000D02*
X53118000Y-39578000D01*
X69888000Y-43610500D02*
X73568000Y-43610500D01*
D30*
G04 #@! TO.N,Net-(D1-A)*
X76375500Y-33168000D02*
X72908000Y-33168000D01*
D29*
X70848000Y-31588000D02*
X71013000Y-31423000D01*
D30*
X61023000Y-33478000D02*
X63063000Y-31438000D01*
D29*
X61098000Y-34068000D02*
X61098000Y-33628000D01*
X72908000Y-33168000D02*
X72688000Y-32948000D01*
D30*
X63063000Y-31438000D02*
X70773000Y-31438000D01*
D29*
G04 #@! TO.N,Net-(D2-A)*
X82158000Y-40675500D02*
X82440500Y-40958000D01*
X82158000Y-38800500D02*
X84470500Y-38800500D01*
X82158000Y-38800500D02*
X82158000Y-40675500D01*
X84470500Y-38800500D02*
X84738000Y-39068000D01*
G04 #@! TO.N,Net-(Q2-C)*
X75555500Y-39683000D02*
X75608000Y-39630500D01*
X74988000Y-40358000D02*
X75608000Y-39738000D01*
X75608000Y-39738000D02*
X75608000Y-40833000D01*
X73228000Y-39933000D02*
X74868000Y-41573000D01*
X73228000Y-39683000D02*
X75555500Y-39683000D01*
X73228000Y-39683000D02*
X73228000Y-39933000D01*
X75608000Y-40833000D02*
X74868000Y-41573000D01*
D28*
G04 #@! TO.N,Net-(Q4-G)*
X66278000Y-35338000D02*
X74243000Y-35338000D01*
X74243000Y-35338000D02*
X75648000Y-36743000D01*
X64698000Y-33758000D02*
X66278000Y-35338000D01*
X77933000Y-36743000D02*
X77958000Y-36718000D01*
X75648000Y-36743000D02*
X77933000Y-36743000D01*
D29*
G04 #@! TO.N,Net-(Q5-B)*
X79833000Y-35768000D02*
X82050500Y-35768000D01*
X82050500Y-35768000D02*
X82158000Y-35875500D01*
G04 #@! TO.N,Net-(L1-Pad1)*
X58008000Y-36858000D02*
X59063000Y-36858000D01*
X59063000Y-36013000D02*
X59063000Y-36858000D01*
X59063000Y-36858000D02*
X63675500Y-36858000D01*
X58098000Y-34068000D02*
X58098000Y-36768000D01*
X58098000Y-36768000D02*
X58008000Y-36858000D01*
X54858000Y-36858000D02*
X53021274Y-35021274D01*
X63655500Y-36690500D02*
X72328000Y-36690500D01*
X63675500Y-36858000D02*
X63688000Y-36845500D01*
X55468000Y-34068000D02*
X54788000Y-34748000D01*
X58098000Y-34068000D02*
X55468000Y-34068000D01*
X58098000Y-35048000D02*
X59063000Y-36013000D01*
X57578000Y-36858000D02*
X58008000Y-36858000D01*
D30*
X53214548Y-35388000D02*
X57338000Y-35388000D01*
D29*
X57578000Y-36858000D02*
X54858000Y-36858000D01*
X58098000Y-34068000D02*
X58098000Y-35048000D01*
D30*
X57144726Y-35021274D02*
X58098000Y-34068000D01*
D29*
G04 #@! TO.N,Net-(C1-Pad2)*
X60958000Y-41570500D02*
X60958000Y-41680500D01*
X62813000Y-42815500D02*
X62813000Y-43790500D01*
X60958000Y-41855500D02*
X61853000Y-41855500D01*
X61853000Y-41855500D02*
X62813000Y-42815500D01*
X59998000Y-39843000D02*
X59998000Y-40610500D01*
X59998000Y-40610500D02*
X60958000Y-41570500D01*
G04 #@! TO.N,Net-(J01-Pad2)*
X65978000Y-43620500D02*
X65808000Y-43790500D01*
X67788000Y-43003000D02*
X67788000Y-43240500D01*
X67788000Y-43240500D02*
X67408000Y-43620500D01*
X67408000Y-43620500D02*
X65978000Y-43620500D01*
G04 #@! TD*
G04 #@! TA.AperFunction,Conductor*
G04 #@! TO.N,Earth*
G36*
X95240350Y-27029314D02*
G01*
X95375424Y-27036395D01*
X95567544Y-27047170D01*
X95573732Y-27047832D01*
X95733035Y-27073065D01*
X95900581Y-27101535D01*
X95906202Y-27102762D01*
X96055660Y-27142811D01*
X96065512Y-27145451D01*
X96225719Y-27191607D01*
X96230776Y-27193302D01*
X96310479Y-27223897D01*
X96385605Y-27252736D01*
X96387050Y-27253313D01*
X96539203Y-27316338D01*
X96543607Y-27318368D01*
X96692044Y-27394002D01*
X96693859Y-27394966D01*
X96837319Y-27474255D01*
X96841061Y-27476500D01*
X96981134Y-27567465D01*
X96983207Y-27568873D01*
X97047348Y-27614385D01*
X97116552Y-27663489D01*
X97119692Y-27665870D01*
X97249638Y-27771098D01*
X97251907Y-27773030D01*
X97373687Y-27881861D01*
X97376214Y-27884250D01*
X97494465Y-28002503D01*
X97496855Y-28005030D01*
X97605702Y-28126831D01*
X97607634Y-28129102D01*
X97687165Y-28227314D01*
X97712831Y-28259010D01*
X97715213Y-28262151D01*
X97809846Y-28395524D01*
X97811279Y-28397634D01*
X97902198Y-28537639D01*
X97904465Y-28541417D01*
X97983752Y-28684876D01*
X97984730Y-28686719D01*
X98060339Y-28835110D01*
X98062370Y-28839514D01*
X98077524Y-28876098D01*
X98125382Y-28991641D01*
X98125983Y-28993148D01*
X98185404Y-29147944D01*
X98187099Y-29153002D01*
X98233247Y-29313183D01*
X98275937Y-29472508D01*
X98277174Y-29478172D01*
X98305646Y-29645735D01*
X98314241Y-29700000D01*
X98330868Y-29804988D01*
X98331534Y-29811214D01*
X98342066Y-29998732D01*
X98349415Y-30138954D01*
X98349500Y-30142200D01*
X98349499Y-46355714D01*
X98349401Y-46359192D01*
X98342862Y-46475601D01*
X98331712Y-46660137D01*
X98330949Y-46666789D01*
X98306548Y-46810386D01*
X98277894Y-46966732D01*
X98276485Y-46972723D01*
X98235121Y-47116294D01*
X98234737Y-47117576D01*
X98188805Y-47264965D01*
X98186892Y-47270249D01*
X98129047Y-47409892D01*
X98128304Y-47411610D01*
X98065670Y-47550775D01*
X98063395Y-47555323D01*
X97989850Y-47688388D01*
X97988644Y-47690472D01*
X97910142Y-47820329D01*
X97907647Y-47824133D01*
X97819409Y-47948490D01*
X97817650Y-47950849D01*
X97724318Y-48069977D01*
X97721741Y-48073054D01*
X97620006Y-48186894D01*
X97617616Y-48189422D01*
X97510710Y-48296327D01*
X97508183Y-48298716D01*
X97394326Y-48400465D01*
X97391248Y-48403041D01*
X97272127Y-48496365D01*
X97269768Y-48498125D01*
X97145404Y-48586366D01*
X97141600Y-48588860D01*
X97011741Y-48667362D01*
X97009657Y-48668567D01*
X96876598Y-48742107D01*
X96872050Y-48744382D01*
X96732895Y-48807011D01*
X96731176Y-48807754D01*
X96591507Y-48865607D01*
X96586224Y-48867520D01*
X96438872Y-48913438D01*
X96437590Y-48913822D01*
X96294005Y-48955190D01*
X96288013Y-48956598D01*
X96131549Y-48985271D01*
X95988055Y-49009653D01*
X95981408Y-49010417D01*
X95801058Y-49021328D01*
X95679933Y-49028132D01*
X95676455Y-49028230D01*
X51462894Y-49028230D01*
X51459648Y-49028145D01*
X51320417Y-49020846D01*
X51132853Y-49010348D01*
X51126615Y-49009681D01*
X50963606Y-48983862D01*
X50799846Y-48956036D01*
X50794182Y-48954799D01*
X50632383Y-48911442D01*
X50474734Y-48866023D01*
X50469676Y-48864327D01*
X50312954Y-48804166D01*
X50311446Y-48803564D01*
X50253635Y-48779617D01*
X50161248Y-48741348D01*
X50156867Y-48739329D01*
X50067633Y-48693861D01*
X50006947Y-48662938D01*
X50005104Y-48661960D01*
X49863166Y-48583511D01*
X49859388Y-48581244D01*
X49781679Y-48530779D01*
X49718080Y-48489476D01*
X49716004Y-48488066D01*
X49583936Y-48394356D01*
X49580795Y-48391974D01*
X49449761Y-48285863D01*
X49447465Y-48283909D01*
X49326820Y-48176090D01*
X49324293Y-48173701D01*
X49220570Y-48069977D01*
X49205038Y-48054444D01*
X49202662Y-48051931D01*
X49094842Y-47931276D01*
X49092889Y-47928980D01*
X48986782Y-47797948D01*
X48984399Y-47794806D01*
X48890699Y-47662743D01*
X48889267Y-47660634D01*
X48820878Y-47555323D01*
X48797505Y-47519331D01*
X48795249Y-47515569D01*
X48737794Y-47411610D01*
X48716792Y-47373609D01*
X48715857Y-47371849D01*
X48639449Y-47221883D01*
X48637415Y-47217472D01*
X48575192Y-47067248D01*
X48574614Y-47065801D01*
X48514443Y-46909043D01*
X48512764Y-46904038D01*
X48467350Y-46746395D01*
X48423972Y-46584497D01*
X48422748Y-46578891D01*
X48394950Y-46415278D01*
X48369102Y-46252063D01*
X48368438Y-46245854D01*
X48358544Y-46069653D01*
X48350585Y-45917744D01*
X48350500Y-45914501D01*
X48350500Y-45900000D01*
X50094341Y-45900000D01*
X50114936Y-46135403D01*
X50114938Y-46135413D01*
X50176094Y-46363655D01*
X50176096Y-46363659D01*
X50176097Y-46363663D01*
X50200122Y-46415184D01*
X50275964Y-46577828D01*
X50275965Y-46577830D01*
X50411505Y-46771402D01*
X50578597Y-46938494D01*
X50772169Y-47074034D01*
X50772171Y-47074035D01*
X50986337Y-47173903D01*
X51214592Y-47235063D01*
X51391032Y-47250499D01*
X51391033Y-47250500D01*
X51391034Y-47250500D01*
X51508967Y-47250500D01*
X51508967Y-47250499D01*
X51685408Y-47235063D01*
X51913663Y-47173903D01*
X52127829Y-47074035D01*
X52321401Y-46938495D01*
X52488495Y-46771401D01*
X52624035Y-46577830D01*
X52723903Y-46363663D01*
X52785063Y-46135408D01*
X52805659Y-45900000D01*
X52804463Y-45886335D01*
X52796966Y-45800645D01*
X52785063Y-45664592D01*
X52723903Y-45436337D01*
X52624035Y-45222171D01*
X52624034Y-45222169D01*
X52488494Y-45028597D01*
X52321402Y-44861505D01*
X52127830Y-44725965D01*
X52127828Y-44725964D01*
X51963565Y-44649367D01*
X51913663Y-44626097D01*
X51913659Y-44626096D01*
X51913655Y-44626094D01*
X51685413Y-44564938D01*
X51685403Y-44564936D01*
X51508967Y-44549500D01*
X51508966Y-44549500D01*
X51391034Y-44549500D01*
X51391033Y-44549500D01*
X51214596Y-44564936D01*
X51214586Y-44564938D01*
X50986344Y-44626094D01*
X50986335Y-44626098D01*
X50772171Y-44725964D01*
X50772169Y-44725965D01*
X50578597Y-44861505D01*
X50411506Y-45028597D01*
X50411501Y-45028604D01*
X50275967Y-45222165D01*
X50275965Y-45222169D01*
X50176098Y-45436335D01*
X50176094Y-45436344D01*
X50114938Y-45664586D01*
X50114936Y-45664596D01*
X50094341Y-45899999D01*
X50094341Y-45900000D01*
X48350500Y-45900000D01*
X48350500Y-44045500D01*
X56378000Y-44045500D01*
X56378000Y-44448649D01*
X56380899Y-44485489D01*
X56380900Y-44485495D01*
X56426716Y-44643193D01*
X56426717Y-44643196D01*
X56510314Y-44784552D01*
X56510321Y-44784561D01*
X56626438Y-44900678D01*
X56626447Y-44900685D01*
X56767801Y-44984281D01*
X56925514Y-45030100D01*
X56925511Y-45030100D01*
X56927998Y-45030295D01*
X56928000Y-45030295D01*
X56928000Y-44045500D01*
X56378000Y-44045500D01*
X48350500Y-44045500D01*
X48350500Y-41227999D01*
X50413065Y-41227999D01*
X50432786Y-41554038D01*
X50491667Y-41875341D01*
X50588835Y-42187164D01*
X50588839Y-42187175D01*
X50722897Y-42485041D01*
X50722898Y-42485043D01*
X50891887Y-42764586D01*
X51039477Y-42952968D01*
X51552070Y-42440375D01*
X51751274Y-42440375D01*
X51790887Y-42522631D01*
X51862266Y-42579553D01*
X51928742Y-42594726D01*
X51973806Y-42594726D01*
X52040282Y-42579553D01*
X52111661Y-42522631D01*
X52151274Y-42440375D01*
X52151274Y-42349077D01*
X52111661Y-42266821D01*
X52040282Y-42209899D01*
X51973806Y-42194726D01*
X51928742Y-42194726D01*
X51862266Y-42209899D01*
X51790887Y-42266821D01*
X51751274Y-42349077D01*
X51751274Y-42440375D01*
X51552070Y-42440375D01*
X52182210Y-41810234D01*
X52282894Y-41951624D01*
X52434932Y-42096592D01*
X52537222Y-42162330D01*
X51393030Y-43306521D01*
X51393030Y-43306522D01*
X51581414Y-43454112D01*
X51581423Y-43454118D01*
X51860956Y-43623101D01*
X51860958Y-43623102D01*
X52158824Y-43757160D01*
X52158835Y-43757164D01*
X52470658Y-43854332D01*
X52791961Y-43913213D01*
X53117999Y-43932934D01*
X53444038Y-43913213D01*
X53765341Y-43854332D01*
X54077164Y-43757164D01*
X54077175Y-43757160D01*
X54375041Y-43623102D01*
X54375043Y-43623101D01*
X54654576Y-43454118D01*
X54654584Y-43454112D01*
X54842968Y-43306522D01*
X54842968Y-43306521D01*
X53976822Y-42440375D01*
X54084726Y-42440375D01*
X54124339Y-42522631D01*
X54195718Y-42579553D01*
X54262194Y-42594726D01*
X54307258Y-42594726D01*
X54373734Y-42579553D01*
X54445113Y-42522631D01*
X54484726Y-42440375D01*
X54484726Y-42349077D01*
X54445113Y-42266821D01*
X54373734Y-42209899D01*
X54307258Y-42194726D01*
X54262194Y-42194726D01*
X54195718Y-42209899D01*
X54124339Y-42266821D01*
X54084726Y-42349077D01*
X54084726Y-42440375D01*
X53976822Y-42440375D01*
X53701306Y-42164859D01*
X53715410Y-42157589D01*
X53880540Y-42027729D01*
X54018110Y-41868965D01*
X54052665Y-41809113D01*
X55196521Y-42952968D01*
X55196522Y-42952968D01*
X55344112Y-42764584D01*
X55344118Y-42764576D01*
X55513101Y-42485043D01*
X55513102Y-42485041D01*
X55647160Y-42187175D01*
X55647164Y-42187164D01*
X55744332Y-41875341D01*
X55803213Y-41554038D01*
X55822934Y-41228000D01*
X55803213Y-40901961D01*
X55744332Y-40580658D01*
X55647164Y-40268835D01*
X55647160Y-40268824D01*
X55513102Y-39970958D01*
X55513101Y-39970956D01*
X55344118Y-39691423D01*
X55344112Y-39691414D01*
X55196521Y-39503030D01*
X54053788Y-40645763D01*
X53953106Y-40504376D01*
X53801068Y-40359408D01*
X53698777Y-40293669D01*
X53885523Y-40106923D01*
X54084726Y-40106923D01*
X54124339Y-40189179D01*
X54195718Y-40246101D01*
X54262194Y-40261274D01*
X54307258Y-40261274D01*
X54373734Y-40246101D01*
X54445113Y-40189179D01*
X54484726Y-40106923D01*
X54484726Y-40015625D01*
X54445113Y-39933369D01*
X54373734Y-39876447D01*
X54307258Y-39861274D01*
X54262194Y-39861274D01*
X54195718Y-39876447D01*
X54124339Y-39933369D01*
X54084726Y-40015625D01*
X54084726Y-40106923D01*
X53885523Y-40106923D01*
X54842968Y-39149477D01*
X54842968Y-39149476D01*
X54654586Y-39001887D01*
X54375043Y-38832898D01*
X54375041Y-38832897D01*
X54077175Y-38698839D01*
X54077164Y-38698835D01*
X53765341Y-38601667D01*
X53444038Y-38542786D01*
X53118000Y-38523065D01*
X52791961Y-38542786D01*
X52470658Y-38601667D01*
X52158835Y-38698835D01*
X52158824Y-38698839D01*
X51860958Y-38832897D01*
X51860956Y-38832898D01*
X51581423Y-39001881D01*
X51393030Y-39149476D01*
X51393030Y-39149477D01*
X52534693Y-40291140D01*
X52520590Y-40298411D01*
X52355460Y-40428271D01*
X52217890Y-40587035D01*
X52183334Y-40646887D01*
X51643370Y-40106923D01*
X51751274Y-40106923D01*
X51790887Y-40189179D01*
X51862266Y-40246101D01*
X51928742Y-40261274D01*
X51973806Y-40261274D01*
X52040282Y-40246101D01*
X52111661Y-40189179D01*
X52151274Y-40106923D01*
X52151274Y-40015625D01*
X52111661Y-39933369D01*
X52040282Y-39876447D01*
X51973806Y-39861274D01*
X51928742Y-39861274D01*
X51862266Y-39876447D01*
X51790887Y-39933369D01*
X51751274Y-40015625D01*
X51751274Y-40106923D01*
X51643370Y-40106923D01*
X51039477Y-39503030D01*
X51039476Y-39503030D01*
X50891881Y-39691423D01*
X50722898Y-39970956D01*
X50722897Y-39970958D01*
X50588839Y-40268824D01*
X50588835Y-40268835D01*
X50491667Y-40580658D01*
X50432786Y-40901961D01*
X50413065Y-41227999D01*
X48350500Y-41227999D01*
X48350500Y-35021273D01*
X50315838Y-35021273D01*
X50335563Y-35347373D01*
X50394452Y-35668726D01*
X50491640Y-35980616D01*
X50491644Y-35980628D01*
X50491647Y-35980635D01*
X50625729Y-36278553D01*
X50790175Y-36550580D01*
X50794747Y-36558142D01*
X50996228Y-36815313D01*
X51227234Y-37046319D01*
X51484405Y-37247800D01*
X51484408Y-37247802D01*
X51484411Y-37247804D01*
X51763995Y-37416819D01*
X52061913Y-37550901D01*
X52061926Y-37550905D01*
X52061931Y-37550907D01*
X52373815Y-37648093D01*
X52373821Y-37648095D01*
X52695170Y-37706984D01*
X53021274Y-37726710D01*
X53347378Y-37706984D01*
X53668727Y-37648095D01*
X53879773Y-37582329D01*
X53949630Y-37581178D01*
X54002229Y-37610971D01*
X54022933Y-37630712D01*
X54064100Y-37669965D01*
X54065116Y-37670956D01*
X54080063Y-37685903D01*
X54093327Y-37699167D01*
X54093337Y-37699176D01*
X54097323Y-37702467D01*
X54102069Y-37706385D01*
X54105373Y-37709318D01*
X54152889Y-37754624D01*
X54165769Y-37762901D01*
X54179116Y-37771479D01*
X54184082Y-37774670D01*
X54190028Y-37779010D01*
X54218648Y-37802641D01*
X54276284Y-37834112D01*
X54280085Y-37836368D01*
X54292777Y-37844524D01*
X54335317Y-37871863D01*
X54369761Y-37885652D01*
X54376415Y-37888788D01*
X54408977Y-37906568D01*
X54471536Y-37926565D01*
X54475674Y-37928053D01*
X54536638Y-37952460D01*
X54573070Y-37959482D01*
X54580199Y-37961301D01*
X54605338Y-37969337D01*
X54615534Y-37972597D01*
X54680723Y-37980391D01*
X54685098Y-37981073D01*
X54749567Y-37993499D01*
X54749568Y-37993499D01*
X54749573Y-37993500D01*
X54786663Y-37993500D01*
X54794030Y-37993939D01*
X54796677Y-37994255D01*
X54830855Y-37998342D01*
X54896348Y-37993657D01*
X54900770Y-37993500D01*
X57469573Y-37993500D01*
X57899573Y-37993500D01*
X57902838Y-37993500D01*
X57923402Y-37995216D01*
X57926626Y-37995759D01*
X57988836Y-37994278D01*
X58020785Y-37993518D01*
X58022260Y-37993500D01*
X58954573Y-37993500D01*
X58972919Y-37993500D01*
X58990564Y-37994762D01*
X58993429Y-37995173D01*
X59008725Y-37997373D01*
X59074396Y-37994244D01*
X59088567Y-37993570D01*
X59091517Y-37993500D01*
X63570338Y-37993500D01*
X63590902Y-37995216D01*
X63594126Y-37995759D01*
X63656336Y-37994278D01*
X63688285Y-37993518D01*
X63689760Y-37993500D01*
X63729582Y-37993500D01*
X63729591Y-37993500D01*
X63729600Y-37993499D01*
X63729602Y-37993499D01*
X63730303Y-37993431D01*
X63740869Y-37992422D01*
X63745263Y-37992160D01*
X63810919Y-37990598D01*
X63836648Y-37985000D01*
X63847153Y-37982716D01*
X63854445Y-37981578D01*
X63854820Y-37981542D01*
X63891372Y-37978052D01*
X63954400Y-37959544D01*
X63958645Y-37958461D01*
X64022817Y-37944502D01*
X64056905Y-37929903D01*
X64063843Y-37927409D01*
X64099442Y-37916957D01*
X64145002Y-37893467D01*
X64157807Y-37886867D01*
X64161814Y-37884979D01*
X64169168Y-37881830D01*
X64222163Y-37859137D01*
X64239634Y-37847311D01*
X64306187Y-37826035D01*
X64309140Y-37826000D01*
X64573982Y-37826000D01*
X64612985Y-37832293D01*
X64630203Y-37837999D01*
X64732991Y-37848500D01*
X65364799Y-37848499D01*
X65431837Y-37868183D01*
X65477592Y-37920987D01*
X65487536Y-37990146D01*
X65458511Y-38053702D01*
X65452479Y-38060180D01*
X64901477Y-38611181D01*
X64840154Y-38644666D01*
X64813797Y-38647500D01*
X64732999Y-38647500D01*
X64732980Y-38647501D01*
X64630203Y-38658000D01*
X64630200Y-38658001D01*
X64463668Y-38713185D01*
X64463663Y-38713187D01*
X64314342Y-38805289D01*
X64190279Y-38929352D01*
X64189674Y-38930118D01*
X64189126Y-38930505D01*
X64185181Y-38934451D01*
X64184506Y-38933776D01*
X64132646Y-38970485D01*
X64062846Y-38973612D01*
X64004740Y-38940872D01*
X63911657Y-38847789D01*
X63911656Y-38847788D01*
X63790444Y-38773024D01*
X63762336Y-38755687D01*
X63762331Y-38755685D01*
X63708961Y-38738000D01*
X63595797Y-38700501D01*
X63595795Y-38700500D01*
X63493016Y-38690000D01*
X63493009Y-38690000D01*
X62900376Y-38690000D01*
X62859820Y-38683180D01*
X62776927Y-38654490D01*
X62776923Y-38654489D01*
X62776922Y-38654489D01*
X62562275Y-38623627D01*
X62562272Y-38623627D01*
X62345670Y-38633944D01*
X62134916Y-38685073D01*
X62129339Y-38687004D01*
X62129069Y-38686226D01*
X62098373Y-38694558D01*
X62040208Y-38700500D01*
X62040201Y-38700501D01*
X61873668Y-38755685D01*
X61873663Y-38755687D01*
X61724342Y-38847789D01*
X61601931Y-38970201D01*
X61540608Y-39003686D01*
X61470916Y-38998702D01*
X61426569Y-38970201D01*
X61341657Y-38885289D01*
X61341656Y-38885288D01*
X61192334Y-38793186D01*
X61025797Y-38738001D01*
X61025795Y-38738000D01*
X60923016Y-38727500D01*
X60923009Y-38727500D01*
X60227185Y-38727500D01*
X60209539Y-38726238D01*
X60052275Y-38703627D01*
X60052271Y-38703627D01*
X59835666Y-38713944D01*
X59794194Y-38724005D01*
X59764964Y-38727500D01*
X59572999Y-38727500D01*
X59572980Y-38727501D01*
X59470203Y-38738000D01*
X59470200Y-38738001D01*
X59303668Y-38793185D01*
X59303663Y-38793187D01*
X59154342Y-38885289D01*
X59030289Y-39009342D01*
X59020852Y-39024643D01*
X58968904Y-39071367D01*
X58899941Y-39082590D01*
X58835859Y-39054746D01*
X58809774Y-39024643D01*
X58795712Y-39001844D01*
X58671656Y-38877788D01*
X58522334Y-38785686D01*
X58355797Y-38730501D01*
X58355795Y-38730500D01*
X58253016Y-38720000D01*
X58253009Y-38720000D01*
X57921483Y-38720000D01*
X57880926Y-38713180D01*
X57826923Y-38694489D01*
X57744080Y-38682578D01*
X57612275Y-38663627D01*
X57612272Y-38663627D01*
X57395668Y-38673944D01*
X57220230Y-38716505D01*
X57190996Y-38720000D01*
X56902999Y-38720000D01*
X56902980Y-38720001D01*
X56800203Y-38730500D01*
X56800200Y-38730501D01*
X56633668Y-38785685D01*
X56633663Y-38785687D01*
X56484342Y-38877789D01*
X56360289Y-39001842D01*
X56268187Y-39151163D01*
X56268185Y-39151168D01*
X56264264Y-39163001D01*
X56213001Y-39317703D01*
X56213001Y-39317704D01*
X56213000Y-39317704D01*
X56202500Y-39420483D01*
X56202500Y-40145501D01*
X56202501Y-40145519D01*
X56213000Y-40248296D01*
X56213001Y-40248299D01*
X56268185Y-40414831D01*
X56268187Y-40414836D01*
X56303068Y-40471388D01*
X56338681Y-40529126D01*
X56360289Y-40564157D01*
X56386181Y-40590049D01*
X56419666Y-40651372D01*
X56422500Y-40677730D01*
X56422500Y-41245338D01*
X56420783Y-41265903D01*
X56420241Y-41269121D01*
X56420241Y-41269125D01*
X56422482Y-41363284D01*
X56422500Y-41364759D01*
X56422500Y-41404591D01*
X56423006Y-41409894D01*
X56423575Y-41415861D01*
X56423838Y-41420274D01*
X56425402Y-41485920D01*
X56433285Y-41522162D01*
X56434422Y-41529451D01*
X56437946Y-41566365D01*
X56437947Y-41566367D01*
X56437947Y-41566369D01*
X56437948Y-41566372D01*
X56442951Y-41583411D01*
X56456445Y-41629369D01*
X56457539Y-41633656D01*
X56465076Y-41668297D01*
X56471498Y-41697817D01*
X56471499Y-41697819D01*
X56486096Y-41731908D01*
X56488592Y-41738852D01*
X56499042Y-41774439D01*
X56499043Y-41774442D01*
X56503494Y-41783075D01*
X56529128Y-41832798D01*
X56531015Y-41836803D01*
X56556860Y-41897158D01*
X56556863Y-41897163D01*
X56577650Y-41927876D01*
X56581415Y-41934222D01*
X56598412Y-41967190D01*
X56638992Y-42018792D01*
X56641603Y-42022367D01*
X56675361Y-42072244D01*
X56678411Y-42076750D01*
X56678414Y-42076753D01*
X56704630Y-42102969D01*
X56709529Y-42108488D01*
X56732463Y-42137650D01*
X56782092Y-42180654D01*
X56785317Y-42183656D01*
X56877619Y-42275958D01*
X56960934Y-42359273D01*
X56994419Y-42420596D01*
X56989435Y-42490288D01*
X56947563Y-42546221D01*
X56907848Y-42566030D01*
X56767806Y-42606716D01*
X56767803Y-42606717D01*
X56626447Y-42690314D01*
X56626438Y-42690321D01*
X56510321Y-42806438D01*
X56510314Y-42806447D01*
X56426717Y-42947803D01*
X56426716Y-42947806D01*
X56380900Y-43105504D01*
X56380899Y-43105510D01*
X56378000Y-43142350D01*
X56378000Y-43545500D01*
X57304000Y-43545500D01*
X57371039Y-43565185D01*
X57416794Y-43617989D01*
X57428000Y-43669500D01*
X57427999Y-45030295D01*
X57428001Y-45030295D01*
X57430486Y-45030100D01*
X57588198Y-44984281D01*
X57729552Y-44900685D01*
X57729561Y-44900678D01*
X57760157Y-44870082D01*
X57821479Y-44836596D01*
X57891171Y-44841580D01*
X57947105Y-44883450D01*
X57971523Y-44948914D01*
X57971804Y-44954808D01*
X57972482Y-44983281D01*
X57972500Y-44984758D01*
X57972500Y-45024591D01*
X57972882Y-45028597D01*
X57973575Y-45035861D01*
X57973838Y-45040274D01*
X57975402Y-45105920D01*
X57983285Y-45142162D01*
X57984422Y-45149451D01*
X57987946Y-45186365D01*
X57987947Y-45186367D01*
X57987947Y-45186369D01*
X57987948Y-45186372D01*
X57998459Y-45222169D01*
X58006445Y-45249369D01*
X58007539Y-45253656D01*
X58015799Y-45291623D01*
X58021498Y-45317817D01*
X58021499Y-45317819D01*
X58036096Y-45351908D01*
X58038592Y-45358852D01*
X58049042Y-45394439D01*
X58049043Y-45394442D01*
X58070642Y-45436337D01*
X58079128Y-45452798D01*
X58081015Y-45456803D01*
X58106860Y-45517158D01*
X58106863Y-45517163D01*
X58127650Y-45547876D01*
X58131415Y-45554222D01*
X58148412Y-45587190D01*
X58188992Y-45638792D01*
X58191603Y-45642367D01*
X58227152Y-45694890D01*
X58228411Y-45696750D01*
X58228414Y-45696753D01*
X58254630Y-45722969D01*
X58259529Y-45728488D01*
X58282462Y-45757649D01*
X58332092Y-45800653D01*
X58335309Y-45803648D01*
X58667063Y-46135403D01*
X58760720Y-46229060D01*
X58774044Y-46244811D01*
X58775943Y-46247477D01*
X58802884Y-46273165D01*
X58844101Y-46312466D01*
X58845117Y-46313457D01*
X58873327Y-46341667D01*
X58873337Y-46341676D01*
X58877323Y-46344967D01*
X58882069Y-46348885D01*
X58885373Y-46351818D01*
X58932889Y-46397124D01*
X58945006Y-46404911D01*
X58960991Y-46415184D01*
X58964082Y-46417170D01*
X58970028Y-46421510D01*
X58998648Y-46445141D01*
X58998652Y-46445144D01*
X59025214Y-46459647D01*
X59056303Y-46476622D01*
X59060085Y-46478867D01*
X59115317Y-46514363D01*
X59149744Y-46528144D01*
X59156413Y-46531286D01*
X59188974Y-46549067D01*
X59188972Y-46549067D01*
X59251527Y-46569063D01*
X59255672Y-46570553D01*
X59316638Y-46594960D01*
X59353053Y-46601978D01*
X59360193Y-46603799D01*
X59395534Y-46615097D01*
X59395536Y-46615097D01*
X59395539Y-46615098D01*
X59424645Y-46618577D01*
X59460734Y-46622892D01*
X59465075Y-46623568D01*
X59529573Y-46636000D01*
X59566662Y-46636000D01*
X59574029Y-46636439D01*
X59577494Y-46636853D01*
X59610855Y-46640842D01*
X59676348Y-46636157D01*
X59680770Y-46636000D01*
X63522838Y-46636000D01*
X63543402Y-46637716D01*
X63546626Y-46638259D01*
X63608836Y-46636778D01*
X63640785Y-46636018D01*
X63642260Y-46636000D01*
X63682082Y-46636000D01*
X63682091Y-46636000D01*
X63682100Y-46635999D01*
X63682102Y-46635999D01*
X63682803Y-46635931D01*
X63693369Y-46634922D01*
X63697763Y-46634660D01*
X63763419Y-46633098D01*
X63789148Y-46627500D01*
X63799653Y-46625216D01*
X63806945Y-46624078D01*
X63812244Y-46623572D01*
X63843872Y-46620552D01*
X63906900Y-46602044D01*
X63911145Y-46600961D01*
X63975317Y-46587002D01*
X64009405Y-46572403D01*
X64016343Y-46569909D01*
X64051942Y-46559457D01*
X64097502Y-46535967D01*
X64110307Y-46529367D01*
X64114314Y-46527479D01*
X64174663Y-46501637D01*
X64205380Y-46480846D01*
X64211730Y-46477079D01*
X64214597Y-46475601D01*
X64244690Y-46460088D01*
X64296313Y-46419489D01*
X64299870Y-46416893D01*
X64302395Y-46415184D01*
X64354250Y-46380089D01*
X64380475Y-46353862D01*
X64384826Y-46350000D01*
X94344341Y-46350000D01*
X94364936Y-46585403D01*
X94364938Y-46585413D01*
X94426094Y-46813655D01*
X94426096Y-46813659D01*
X94426097Y-46813663D01*
X94468240Y-46904038D01*
X94525964Y-47027828D01*
X94525965Y-47027830D01*
X94661505Y-47221402D01*
X94828597Y-47388494D01*
X95022169Y-47524034D01*
X95022171Y-47524035D01*
X95236337Y-47623903D01*
X95464592Y-47685063D01*
X95641032Y-47700499D01*
X95641033Y-47700500D01*
X95641034Y-47700500D01*
X95758967Y-47700500D01*
X95758967Y-47700499D01*
X95935408Y-47685063D01*
X96163663Y-47623903D01*
X96377829Y-47524035D01*
X96571401Y-47388495D01*
X96738495Y-47221401D01*
X96874035Y-47027830D01*
X96973903Y-46813663D01*
X97035063Y-46585408D01*
X97055659Y-46350000D01*
X97035063Y-46114592D01*
X96973903Y-45886337D01*
X96874035Y-45672171D01*
X96874034Y-45672169D01*
X96738494Y-45478597D01*
X96571402Y-45311505D01*
X96377830Y-45175965D01*
X96377828Y-45175964D01*
X96215596Y-45100314D01*
X96163663Y-45076097D01*
X96163659Y-45076096D01*
X96163655Y-45076094D01*
X95935413Y-45014938D01*
X95935403Y-45014936D01*
X95758967Y-44999500D01*
X95758966Y-44999500D01*
X95641034Y-44999500D01*
X95641033Y-44999500D01*
X95464596Y-45014936D01*
X95464586Y-45014938D01*
X95236344Y-45076094D01*
X95236335Y-45076098D01*
X95022171Y-45175964D01*
X95022169Y-45175965D01*
X94828597Y-45311505D01*
X94661506Y-45478597D01*
X94661501Y-45478604D01*
X94525967Y-45672165D01*
X94525965Y-45672169D01*
X94426098Y-45886335D01*
X94426094Y-45886344D01*
X94364938Y-46114586D01*
X94364936Y-46114596D01*
X94344341Y-46349999D01*
X94344341Y-46350000D01*
X64384826Y-46350000D01*
X64385992Y-46348965D01*
X64415149Y-46326038D01*
X64458154Y-46276407D01*
X64461144Y-46273193D01*
X65031828Y-45702509D01*
X65047569Y-45689194D01*
X65084977Y-45662557D01*
X65234623Y-45505612D01*
X65351863Y-45323183D01*
X65380647Y-45251279D01*
X65383793Y-45244603D01*
X65386568Y-45239523D01*
X65386568Y-45239521D01*
X65389403Y-45234333D01*
X65390854Y-45235125D01*
X65430355Y-45187299D01*
X65496910Y-45166034D01*
X65499844Y-45165999D01*
X66100502Y-45165999D01*
X66100508Y-45165999D01*
X66203297Y-45155499D01*
X66369834Y-45100314D01*
X66519156Y-45008212D01*
X66643212Y-44884156D01*
X66685928Y-44814902D01*
X66737875Y-44768179D01*
X66791466Y-44756000D01*
X67302838Y-44756000D01*
X67323402Y-44757716D01*
X67326626Y-44758259D01*
X67388836Y-44756778D01*
X67420785Y-44756018D01*
X67422260Y-44756000D01*
X67462082Y-44756000D01*
X67462091Y-44756000D01*
X67462100Y-44755999D01*
X67462102Y-44755999D01*
X67462803Y-44755931D01*
X67473369Y-44754922D01*
X67477763Y-44754660D01*
X67543419Y-44753098D01*
X67569148Y-44747500D01*
X67579653Y-44745216D01*
X67586945Y-44744078D01*
X67587320Y-44744042D01*
X67623872Y-44740552D01*
X67686900Y-44722044D01*
X67691145Y-44720961D01*
X67755317Y-44707002D01*
X67789405Y-44692403D01*
X67796343Y-44689909D01*
X67831942Y-44679457D01*
X67877502Y-44655967D01*
X67890307Y-44649367D01*
X67894314Y-44647479D01*
X67904323Y-44643193D01*
X67954663Y-44621637D01*
X67985380Y-44600846D01*
X67991730Y-44597079D01*
X67992830Y-44596511D01*
X68024690Y-44580088D01*
X68076313Y-44539489D01*
X68079870Y-44536893D01*
X68134250Y-44500089D01*
X68160475Y-44473862D01*
X68165992Y-44468965D01*
X68195149Y-44446038D01*
X68238160Y-44396399D01*
X68241141Y-44393196D01*
X68516564Y-44117774D01*
X68532317Y-44104450D01*
X68534977Y-44102557D01*
X68564977Y-44071093D01*
X68615714Y-44038957D01*
X68732334Y-44000314D01*
X68881656Y-43908212D01*
X69005712Y-43784156D01*
X69097814Y-43634834D01*
X69152269Y-43470501D01*
X70773204Y-43470501D01*
X70773399Y-43472986D01*
X70819218Y-43630698D01*
X70902814Y-43772052D01*
X70902821Y-43772061D01*
X71018938Y-43888178D01*
X71018947Y-43888185D01*
X71160303Y-43971782D01*
X71160306Y-43971783D01*
X71318004Y-44017599D01*
X71318010Y-44017600D01*
X71354850Y-44020499D01*
X71354866Y-44020500D01*
X71758000Y-44020500D01*
X71758000Y-43470500D01*
X72258000Y-43470500D01*
X72258000Y-44020500D01*
X72661134Y-44020500D01*
X72661149Y-44020499D01*
X72697989Y-44017600D01*
X72697995Y-44017599D01*
X72855693Y-43971783D01*
X72855696Y-43971782D01*
X72930879Y-43927320D01*
X72998603Y-43910137D01*
X73064866Y-43932297D01*
X73108629Y-43986763D01*
X73118000Y-44034052D01*
X73118000Y-44101149D01*
X73120899Y-44137989D01*
X73120900Y-44137995D01*
X73166716Y-44295693D01*
X73166717Y-44295696D01*
X73250314Y-44437052D01*
X73250321Y-44437061D01*
X73366438Y-44553178D01*
X73366447Y-44553185D01*
X73507801Y-44636781D01*
X73665514Y-44682600D01*
X73665511Y-44682600D01*
X73667998Y-44682795D01*
X73668000Y-44682794D01*
X73668000Y-43698000D01*
X73202000Y-43698000D01*
X73134961Y-43678315D01*
X73089206Y-43625511D01*
X73078000Y-43574000D01*
X73078000Y-43470500D01*
X72258000Y-43470500D01*
X71758000Y-43470500D01*
X70773205Y-43470500D01*
X70773204Y-43470501D01*
X69152269Y-43470501D01*
X69152999Y-43468297D01*
X69163500Y-43365509D01*
X69163499Y-43152067D01*
X69183183Y-43085029D01*
X69235987Y-43039274D01*
X69305145Y-43029330D01*
X69322094Y-43032992D01*
X69442926Y-43068097D01*
X69442929Y-43068097D01*
X69442931Y-43068098D01*
X69479806Y-43071000D01*
X69479814Y-43071000D01*
X70786186Y-43071000D01*
X70786194Y-43071000D01*
X70823069Y-43068098D01*
X70823071Y-43068097D01*
X70823073Y-43068097D01*
X70864691Y-43056005D01*
X70980898Y-43022244D01*
X71039193Y-42987768D01*
X71102315Y-42970500D01*
X73161500Y-42970500D01*
X73228539Y-42990185D01*
X73274294Y-43042989D01*
X73285500Y-43094500D01*
X73285500Y-43198000D01*
X74044000Y-43198000D01*
X74111039Y-43217685D01*
X74156794Y-43270489D01*
X74168000Y-43322000D01*
X74168000Y-44682795D01*
X74168001Y-44682795D01*
X74170486Y-44682600D01*
X74328198Y-44636781D01*
X74469552Y-44553185D01*
X74469561Y-44553178D01*
X74585678Y-44437061D01*
X74585685Y-44437052D01*
X74669281Y-44295697D01*
X74701939Y-44183288D01*
X74739545Y-44124402D01*
X74803018Y-44095195D01*
X74872204Y-44104941D01*
X74920284Y-44143572D01*
X74973961Y-44215278D01*
X75056636Y-44290435D01*
X75079958Y-44319068D01*
X75149916Y-44437361D01*
X75149923Y-44437370D01*
X75266129Y-44553576D01*
X75266133Y-44553579D01*
X75266135Y-44553581D01*
X75407602Y-44637244D01*
X75428089Y-44643196D01*
X75565426Y-44683097D01*
X75565429Y-44683097D01*
X75565431Y-44683098D01*
X75602306Y-44686000D01*
X75602314Y-44686000D01*
X76033686Y-44686000D01*
X76033694Y-44686000D01*
X76070569Y-44683098D01*
X76070571Y-44683097D01*
X76070573Y-44683097D01*
X76112191Y-44671005D01*
X76228398Y-44637244D01*
X76369865Y-44553581D01*
X76486081Y-44437365D01*
X76552802Y-44324542D01*
X76571846Y-44299991D01*
X78386564Y-42485274D01*
X78402317Y-42471950D01*
X78404977Y-42470057D01*
X78469952Y-42401911D01*
X78470978Y-42400861D01*
X78499163Y-42372677D01*
X78499163Y-42372676D01*
X78499168Y-42372672D01*
X78506393Y-42363919D01*
X78509296Y-42360648D01*
X78554623Y-42313112D01*
X78574680Y-42281900D01*
X78579009Y-42275972D01*
X78602641Y-42247352D01*
X78602665Y-42247307D01*
X78602682Y-42247290D01*
X78605957Y-42242453D01*
X78606888Y-42243083D01*
X78652065Y-42197899D01*
X78720337Y-42183041D01*
X78776599Y-42201187D01*
X78883875Y-42267356D01*
X78883880Y-42267358D01*
X79050302Y-42322505D01*
X79050309Y-42322506D01*
X79153019Y-42332999D01*
X79265499Y-42332999D01*
X79265500Y-42332998D01*
X79265500Y-41208000D01*
X79765500Y-41208000D01*
X79765500Y-42332999D01*
X79877972Y-42332999D01*
X79877986Y-42332998D01*
X79980697Y-42322505D01*
X80147119Y-42267358D01*
X80147124Y-42267356D01*
X80296345Y-42175315D01*
X80420315Y-42051345D01*
X80512356Y-41902124D01*
X80512358Y-41902119D01*
X80567505Y-41735697D01*
X80567506Y-41735690D01*
X80577999Y-41632986D01*
X80578000Y-41632973D01*
X80578000Y-41208000D01*
X79765500Y-41208000D01*
X79265500Y-41208000D01*
X79265500Y-39583000D01*
X79765500Y-39583000D01*
X79765500Y-40708000D01*
X80577999Y-40708000D01*
X80577999Y-40283028D01*
X80577998Y-40283013D01*
X80567505Y-40180302D01*
X80512358Y-40013880D01*
X80512356Y-40013875D01*
X80420315Y-39864654D01*
X80296345Y-39740684D01*
X80147124Y-39648643D01*
X80147119Y-39648641D01*
X79980697Y-39593494D01*
X79980690Y-39593493D01*
X79877986Y-39583000D01*
X79765500Y-39583000D01*
X79265500Y-39583000D01*
X79153027Y-39583000D01*
X79153012Y-39583001D01*
X79050302Y-39593494D01*
X78956504Y-39624576D01*
X78886676Y-39626978D01*
X78826634Y-39591246D01*
X78795441Y-39528726D01*
X78793500Y-39506870D01*
X78793500Y-38923162D01*
X78795218Y-38902595D01*
X78795757Y-38899385D01*
X78795759Y-38899374D01*
X78794176Y-38832897D01*
X78793518Y-38805231D01*
X78793500Y-38803756D01*
X78793500Y-38763918D01*
X78793500Y-38763909D01*
X78792422Y-38752623D01*
X78792159Y-38748213D01*
X78791916Y-38738000D01*
X78790597Y-38682581D01*
X78782713Y-38646342D01*
X78781578Y-38639067D01*
X78778052Y-38602128D01*
X78759551Y-38539122D01*
X78758459Y-38534850D01*
X78756551Y-38526075D01*
X78761535Y-38456384D01*
X78803407Y-38400451D01*
X78868871Y-38376034D01*
X78937144Y-38390886D01*
X78940838Y-38392986D01*
X78985303Y-38419282D01*
X78985306Y-38419283D01*
X79143004Y-38465099D01*
X79143010Y-38465100D01*
X79179850Y-38467999D01*
X79179866Y-38468000D01*
X79583000Y-38468000D01*
X79583000Y-37918000D01*
X78598204Y-37918000D01*
X78573168Y-37945083D01*
X78513207Y-37980949D01*
X78443373Y-37978704D01*
X78394432Y-37948592D01*
X78213505Y-37767665D01*
X78180020Y-37706342D01*
X78185004Y-37636650D01*
X78226876Y-37580717D01*
X78261587Y-37562477D01*
X78305315Y-37547745D01*
X78305539Y-37547610D01*
X78326723Y-37537458D01*
X78326970Y-37537368D01*
X78326975Y-37537364D01*
X78326982Y-37537362D01*
X78332987Y-37534384D01*
X78333671Y-37535763D01*
X78392732Y-37518500D01*
X78611186Y-37518500D01*
X78611194Y-37518500D01*
X78648069Y-37515598D01*
X78648071Y-37515597D01*
X78648073Y-37515597D01*
X78689691Y-37503505D01*
X78805898Y-37469744D01*
X78864193Y-37435268D01*
X78927315Y-37418000D01*
X81067795Y-37418000D01*
X81067795Y-37417998D01*
X81067600Y-37415513D01*
X81021781Y-37257801D01*
X80938185Y-37116447D01*
X80938178Y-37116438D01*
X80936921Y-37115181D01*
X80936250Y-37113952D01*
X80933400Y-37110278D01*
X80933992Y-37109818D01*
X80903436Y-37053858D01*
X80908420Y-36984166D01*
X80950292Y-36928233D01*
X81015756Y-36903816D01*
X81024602Y-36903500D01*
X81286260Y-36903500D01*
X81325263Y-36909794D01*
X81379250Y-36927683D01*
X81380203Y-36927999D01*
X81482991Y-36938500D01*
X81734786Y-36938499D01*
X81772541Y-36944386D01*
X81915535Y-36990097D01*
X82130855Y-37015842D01*
X82347156Y-37000372D01*
X82556622Y-36944245D01*
X82556622Y-36944244D01*
X82562298Y-36942724D01*
X82594392Y-36938499D01*
X82833002Y-36938499D01*
X82833008Y-36938499D01*
X82935797Y-36927999D01*
X83102334Y-36872814D01*
X83251656Y-36780712D01*
X83375712Y-36656656D01*
X83375715Y-36656650D01*
X83376767Y-36655599D01*
X83438090Y-36622114D01*
X83507782Y-36627098D01*
X83563716Y-36668969D01*
X83579010Y-36695827D01*
X83585477Y-36711441D01*
X83720642Y-36932009D01*
X83720645Y-36932014D01*
X83792240Y-37015841D01*
X83888651Y-37128724D01*
X84014566Y-37236265D01*
X84085360Y-37296729D01*
X84085365Y-37296732D01*
X84310088Y-37434443D01*
X84309095Y-37436062D01*
X84354017Y-37478489D01*
X84370813Y-37546309D01*
X84348276Y-37612445D01*
X84293562Y-37655897D01*
X84246927Y-37665000D01*
X82248081Y-37665000D01*
X82230436Y-37663738D01*
X82220160Y-37662260D01*
X82212275Y-37661127D01*
X82212274Y-37661127D01*
X82132433Y-37664930D01*
X82129483Y-37665000D01*
X82103906Y-37665000D01*
X82078427Y-37667431D01*
X82075489Y-37667641D01*
X81995670Y-37671444D01*
X81995668Y-37671444D01*
X81995666Y-37671445D01*
X81977827Y-37675772D01*
X81960393Y-37678703D01*
X81942128Y-37680448D01*
X81907503Y-37690614D01*
X81865442Y-37702964D01*
X81862593Y-37703727D01*
X81784934Y-37722568D01*
X81784921Y-37722572D01*
X81776768Y-37726296D01*
X81725261Y-37737500D01*
X81482999Y-37737500D01*
X81482980Y-37737501D01*
X81380203Y-37748000D01*
X81380200Y-37748001D01*
X81213668Y-37803185D01*
X81213663Y-37803187D01*
X81140201Y-37848499D01*
X81064344Y-37895288D01*
X81064342Y-37895289D01*
X81058197Y-37899080D01*
X81056571Y-37896444D01*
X81004685Y-37917402D01*
X80992520Y-37918000D01*
X80083000Y-37918000D01*
X80083000Y-38468000D01*
X80486134Y-38468000D01*
X80486149Y-38467999D01*
X80522989Y-38465100D01*
X80522995Y-38465099D01*
X80623905Y-38435782D01*
X80693774Y-38435981D01*
X80752444Y-38473923D01*
X80781288Y-38537561D01*
X80782500Y-38554858D01*
X80782500Y-39163001D01*
X80782501Y-39163019D01*
X80793000Y-39265796D01*
X80793001Y-39265799D01*
X80825286Y-39363226D01*
X80848186Y-39432334D01*
X80940288Y-39581656D01*
X80986181Y-39627549D01*
X81019666Y-39688870D01*
X81022500Y-39715229D01*
X81022500Y-40570338D01*
X81020783Y-40590903D01*
X81020241Y-40594121D01*
X81020241Y-40594125D01*
X81022482Y-40688284D01*
X81022500Y-40689759D01*
X81022500Y-40729591D01*
X81023006Y-40734894D01*
X81023575Y-40740861D01*
X81023838Y-40745274D01*
X81025402Y-40810920D01*
X81033285Y-40847162D01*
X81034422Y-40854451D01*
X81037946Y-40891365D01*
X81037947Y-40891367D01*
X81037947Y-40891369D01*
X81037948Y-40891372D01*
X81049623Y-40931135D01*
X81056445Y-40954369D01*
X81057539Y-40958656D01*
X81065513Y-40995305D01*
X81071498Y-41022817D01*
X81075773Y-41032800D01*
X81086096Y-41056908D01*
X81088592Y-41063852D01*
X81097473Y-41094095D01*
X81099043Y-41099442D01*
X81114963Y-41130322D01*
X81129128Y-41157798D01*
X81131015Y-41161803D01*
X81156860Y-41222158D01*
X81156863Y-41222163D01*
X81177650Y-41252876D01*
X81181415Y-41259222D01*
X81198412Y-41292190D01*
X81238992Y-41343792D01*
X81241603Y-41347367D01*
X81262372Y-41378052D01*
X81278411Y-41401750D01*
X81278414Y-41401753D01*
X81304630Y-41427969D01*
X81309529Y-41433488D01*
X81332462Y-41462649D01*
X81332464Y-41462651D01*
X81334703Y-41464591D01*
X81335506Y-41465841D01*
X81336535Y-41466920D01*
X81336327Y-41467118D01*
X81372477Y-41523369D01*
X81377500Y-41558301D01*
X81377500Y-41633000D01*
X81377501Y-41633019D01*
X81388000Y-41735796D01*
X81388001Y-41735799D01*
X81443185Y-41902331D01*
X81443187Y-41902336D01*
X81469887Y-41945624D01*
X81535288Y-42051656D01*
X81659344Y-42175712D01*
X81808666Y-42267814D01*
X81975203Y-42322999D01*
X82077991Y-42333500D01*
X82803008Y-42333499D01*
X82803016Y-42333498D01*
X82803019Y-42333498D01*
X82859302Y-42327748D01*
X82905797Y-42322999D01*
X83072334Y-42267814D01*
X83221656Y-42175712D01*
X83345712Y-42051656D01*
X83437814Y-41902334D01*
X83492999Y-41735797D01*
X83503500Y-41633009D01*
X83503499Y-41379618D01*
X83511317Y-41336285D01*
X83532095Y-41280578D01*
X83542297Y-41253226D01*
X83562964Y-41130328D01*
X85562858Y-41130328D01*
X85583385Y-41378052D01*
X85583387Y-41378061D01*
X85644412Y-41619040D01*
X85744266Y-41846687D01*
X85844564Y-42000205D01*
X86584923Y-41259846D01*
X86608507Y-41340167D01*
X86686239Y-41461121D01*
X86794900Y-41555275D01*
X86925685Y-41615003D01*
X86935466Y-41616409D01*
X86197942Y-42353932D01*
X86244768Y-42390378D01*
X86244770Y-42390379D01*
X86463385Y-42508687D01*
X86463396Y-42508692D01*
X86698506Y-42589406D01*
X86943707Y-42630323D01*
X87192293Y-42630323D01*
X87437493Y-42589406D01*
X87672603Y-42508692D01*
X87672614Y-42508687D01*
X87891228Y-42390380D01*
X87891231Y-42390378D01*
X87938056Y-42353932D01*
X87200533Y-41616409D01*
X87210315Y-41615003D01*
X87341100Y-41555275D01*
X87449761Y-41461121D01*
X87527493Y-41340167D01*
X87551076Y-41259847D01*
X88291434Y-42000205D01*
X88391731Y-41846692D01*
X88491587Y-41619040D01*
X88552612Y-41378061D01*
X88552614Y-41378052D01*
X88565545Y-41222000D01*
X92217065Y-41222000D01*
X92236786Y-41548038D01*
X92295667Y-41869341D01*
X92392835Y-42181164D01*
X92392839Y-42181175D01*
X92526897Y-42479041D01*
X92526898Y-42479043D01*
X92695887Y-42758586D01*
X92843477Y-42946968D01*
X93356070Y-42434375D01*
X93555274Y-42434375D01*
X93594887Y-42516631D01*
X93666266Y-42573553D01*
X93732742Y-42588726D01*
X93777806Y-42588726D01*
X93844282Y-42573553D01*
X93915661Y-42516631D01*
X93955274Y-42434375D01*
X93955274Y-42343077D01*
X93915661Y-42260821D01*
X93844282Y-42203899D01*
X93777806Y-42188726D01*
X93732742Y-42188726D01*
X93666266Y-42203899D01*
X93594887Y-42260821D01*
X93555274Y-42343077D01*
X93555274Y-42434375D01*
X93356070Y-42434375D01*
X93986210Y-41804234D01*
X94086894Y-41945624D01*
X94238932Y-42090592D01*
X94341222Y-42156330D01*
X93197030Y-43300521D01*
X93197030Y-43300522D01*
X93385414Y-43448112D01*
X93385423Y-43448118D01*
X93664956Y-43617101D01*
X93664958Y-43617102D01*
X93962824Y-43751160D01*
X93962835Y-43751164D01*
X94274658Y-43848332D01*
X94595961Y-43907213D01*
X94922000Y-43926934D01*
X95248038Y-43907213D01*
X95569341Y-43848332D01*
X95881164Y-43751164D01*
X95881175Y-43751160D01*
X96179041Y-43617102D01*
X96179043Y-43617101D01*
X96458576Y-43448118D01*
X96458584Y-43448112D01*
X96646968Y-43300522D01*
X96646968Y-43300521D01*
X95780822Y-42434375D01*
X95888726Y-42434375D01*
X95928339Y-42516631D01*
X95999718Y-42573553D01*
X96066194Y-42588726D01*
X96111258Y-42588726D01*
X96177734Y-42573553D01*
X96249113Y-42516631D01*
X96288726Y-42434375D01*
X96288726Y-42343077D01*
X96249113Y-42260821D01*
X96177734Y-42203899D01*
X96111258Y-42188726D01*
X96066194Y-42188726D01*
X95999718Y-42203899D01*
X95928339Y-42260821D01*
X95888726Y-42343077D01*
X95888726Y-42434375D01*
X95780822Y-42434375D01*
X95505306Y-42158859D01*
X95519410Y-42151589D01*
X95684540Y-42021729D01*
X95822110Y-41862965D01*
X95856665Y-41803112D01*
X97000521Y-42946968D01*
X97000522Y-42946968D01*
X97148112Y-42758584D01*
X97148118Y-42758576D01*
X97317101Y-42479043D01*
X97317102Y-42479041D01*
X97451160Y-42181175D01*
X97451164Y-42181164D01*
X97548332Y-41869341D01*
X97607213Y-41548038D01*
X97626934Y-41221999D01*
X97607213Y-40895961D01*
X97548332Y-40574658D01*
X97451164Y-40262835D01*
X97451160Y-40262824D01*
X97317102Y-39964958D01*
X97317101Y-39964956D01*
X97148118Y-39685423D01*
X97148112Y-39685414D01*
X97000521Y-39497030D01*
X95857788Y-40639763D01*
X95757106Y-40498376D01*
X95605068Y-40353408D01*
X95502776Y-40287669D01*
X95689522Y-40100923D01*
X95888726Y-40100923D01*
X95928339Y-40183179D01*
X95999718Y-40240101D01*
X96066194Y-40255274D01*
X96111258Y-40255274D01*
X96177734Y-40240101D01*
X96249113Y-40183179D01*
X96288726Y-40100923D01*
X96288726Y-40009625D01*
X96249113Y-39927369D01*
X96177734Y-39870447D01*
X96111258Y-39855274D01*
X96066194Y-39855274D01*
X95999718Y-39870447D01*
X95928339Y-39927369D01*
X95888726Y-40009625D01*
X95888726Y-40100923D01*
X95689522Y-40100923D01*
X96646968Y-39143477D01*
X96646968Y-39143476D01*
X96458586Y-38995887D01*
X96179043Y-38826898D01*
X96179041Y-38826897D01*
X95881175Y-38692839D01*
X95881164Y-38692835D01*
X95569341Y-38595667D01*
X95248038Y-38536786D01*
X94921999Y-38517065D01*
X94595961Y-38536786D01*
X94274658Y-38595667D01*
X93962835Y-38692835D01*
X93962824Y-38692839D01*
X93664958Y-38826897D01*
X93664956Y-38826898D01*
X93385423Y-38995881D01*
X93197030Y-39143476D01*
X93197030Y-39143477D01*
X94338692Y-40285140D01*
X94324590Y-40292411D01*
X94159460Y-40422271D01*
X94021890Y-40581035D01*
X93987334Y-40640886D01*
X93447371Y-40100923D01*
X93555274Y-40100923D01*
X93594887Y-40183179D01*
X93666266Y-40240101D01*
X93732742Y-40255274D01*
X93777806Y-40255274D01*
X93844282Y-40240101D01*
X93915661Y-40183179D01*
X93955274Y-40100923D01*
X93955274Y-40009625D01*
X93915661Y-39927369D01*
X93844282Y-39870447D01*
X93777806Y-39855274D01*
X93732742Y-39855274D01*
X93666266Y-39870447D01*
X93594887Y-39927369D01*
X93555274Y-40009625D01*
X93555274Y-40100923D01*
X93447371Y-40100923D01*
X92843477Y-39497030D01*
X92843476Y-39497030D01*
X92695881Y-39685423D01*
X92526898Y-39964956D01*
X92526897Y-39964958D01*
X92392839Y-40262824D01*
X92392835Y-40262835D01*
X92295667Y-40574658D01*
X92236786Y-40895961D01*
X92217065Y-41222000D01*
X88565545Y-41222000D01*
X88573141Y-41130328D01*
X88573141Y-41130317D01*
X88552614Y-40882593D01*
X88552611Y-40882576D01*
X88538429Y-40826574D01*
X88541053Y-40756753D01*
X88581008Y-40699435D01*
X88645609Y-40672818D01*
X88697639Y-40678426D01*
X88770305Y-40702505D01*
X88770309Y-40702506D01*
X88873019Y-40712999D01*
X89297999Y-40712999D01*
X89298000Y-40712998D01*
X89298000Y-39900500D01*
X89798000Y-39900500D01*
X89798000Y-40712999D01*
X90222972Y-40712999D01*
X90222986Y-40712998D01*
X90325697Y-40702505D01*
X90492119Y-40647358D01*
X90492124Y-40647356D01*
X90641345Y-40555315D01*
X90765315Y-40431345D01*
X90857356Y-40282124D01*
X90857358Y-40282119D01*
X90912505Y-40115697D01*
X90912506Y-40115690D01*
X90922999Y-40012986D01*
X90923000Y-40012973D01*
X90923000Y-39900500D01*
X89798000Y-39900500D01*
X89298000Y-39900500D01*
X88173001Y-39900500D01*
X88144108Y-39929393D01*
X88082784Y-39962877D01*
X88013093Y-39957892D01*
X87980265Y-39939565D01*
X87891230Y-39870266D01*
X87891228Y-39870265D01*
X87672614Y-39751958D01*
X87672603Y-39751953D01*
X87437493Y-39671239D01*
X87192293Y-39630323D01*
X86943707Y-39630323D01*
X86698506Y-39671239D01*
X86463396Y-39751953D01*
X86463390Y-39751955D01*
X86244761Y-39870272D01*
X86197942Y-39906711D01*
X86197942Y-39906713D01*
X86935466Y-40644236D01*
X86925685Y-40645643D01*
X86794900Y-40705371D01*
X86686239Y-40799525D01*
X86608507Y-40920479D01*
X86584923Y-41000798D01*
X85844564Y-40260439D01*
X85744267Y-40413955D01*
X85644412Y-40641605D01*
X85583387Y-40882584D01*
X85583385Y-40882593D01*
X85562858Y-41130317D01*
X85562858Y-41130328D01*
X83562964Y-41130328D01*
X83575054Y-41058434D01*
X83578258Y-41039381D01*
X83578258Y-41039379D01*
X83578259Y-41039374D01*
X83573097Y-40822581D01*
X83561434Y-40768965D01*
X83527004Y-40610690D01*
X83527002Y-40610686D01*
X83527002Y-40610683D01*
X83513510Y-40579176D01*
X83503499Y-40530369D01*
X83503499Y-40282992D01*
X83501280Y-40261274D01*
X83492999Y-40180203D01*
X83481500Y-40145501D01*
X83466091Y-40099002D01*
X83463690Y-40029176D01*
X83499421Y-39969134D01*
X83561942Y-39937941D01*
X83583798Y-39936000D01*
X83961249Y-39936000D01*
X84028288Y-39955685D01*
X84040199Y-39964382D01*
X84098642Y-40012637D01*
X84098643Y-40012638D01*
X84098647Y-40012640D01*
X84098648Y-40012641D01*
X84152400Y-40041992D01*
X84288977Y-40116569D01*
X84495527Y-40182595D01*
X84495528Y-40182595D01*
X84495534Y-40182597D01*
X84710855Y-40208342D01*
X84927156Y-40192872D01*
X85136621Y-40136745D01*
X85331679Y-40041992D01*
X85505280Y-39912037D01*
X85511287Y-39905427D01*
X85537947Y-39883298D01*
X85566044Y-39865968D01*
X85685968Y-39746044D01*
X85775003Y-39601697D01*
X85828349Y-39440708D01*
X85832456Y-39400500D01*
X88173000Y-39400500D01*
X89298000Y-39400500D01*
X89298000Y-38588000D01*
X89798000Y-38588000D01*
X89798000Y-39400500D01*
X90922999Y-39400500D01*
X90922999Y-39288028D01*
X90922998Y-39288013D01*
X90912505Y-39185302D01*
X90857358Y-39018880D01*
X90857356Y-39018875D01*
X90765315Y-38869654D01*
X90641345Y-38745684D01*
X90492124Y-38653643D01*
X90492119Y-38653641D01*
X90325697Y-38598494D01*
X90325690Y-38598493D01*
X90222986Y-38588000D01*
X89798000Y-38588000D01*
X89298000Y-38588000D01*
X88873028Y-38588000D01*
X88873012Y-38588001D01*
X88770302Y-38598494D01*
X88603880Y-38653641D01*
X88603875Y-38653643D01*
X88454654Y-38745684D01*
X88330684Y-38869654D01*
X88238643Y-39018875D01*
X88238641Y-39018880D01*
X88183494Y-39185302D01*
X88183493Y-39185309D01*
X88173000Y-39288013D01*
X88173000Y-39400500D01*
X85832456Y-39400500D01*
X85833315Y-39392092D01*
X85838698Y-39369057D01*
X85838266Y-39368942D01*
X85839795Y-39363232D01*
X85839795Y-39363230D01*
X85839797Y-39363226D01*
X85870304Y-39181809D01*
X85875758Y-39149381D01*
X85875758Y-39149379D01*
X85875759Y-39149374D01*
X85870598Y-38932581D01*
X85870146Y-38930505D01*
X85852152Y-38847788D01*
X85837382Y-38779896D01*
X85836290Y-38773040D01*
X85828349Y-38695292D01*
X85775003Y-38534303D01*
X85774999Y-38534297D01*
X85774998Y-38534294D01*
X85685970Y-38389959D01*
X85685967Y-38389955D01*
X85566045Y-38270033D01*
X85566044Y-38270032D01*
X85525730Y-38245166D01*
X85503154Y-38227315D01*
X85347771Y-38071931D01*
X85334454Y-38056187D01*
X85332557Y-38053523D01*
X85264388Y-37988525D01*
X85263382Y-37987542D01*
X85235172Y-37959332D01*
X85226433Y-37952116D01*
X85223127Y-37949182D01*
X85175616Y-37903881D01*
X85175612Y-37903877D01*
X85147567Y-37885853D01*
X85144415Y-37883827D01*
X85138458Y-37879477D01*
X85109854Y-37855861D01*
X85109855Y-37855861D01*
X85109852Y-37855859D01*
X85079582Y-37839330D01*
X85030179Y-37789926D01*
X85015328Y-37721653D01*
X85039745Y-37656189D01*
X85095679Y-37614318D01*
X85139012Y-37606500D01*
X85890115Y-37606500D01*
X85933448Y-37614318D01*
X85960517Y-37624414D01*
X85960516Y-37624414D01*
X85967444Y-37625158D01*
X86020127Y-37630823D01*
X88115872Y-37630822D01*
X88175483Y-37624414D01*
X88202551Y-37614318D01*
X88245885Y-37606500D01*
X88380623Y-37606500D01*
X88447662Y-37626185D01*
X88451824Y-37629157D01*
X88454342Y-37630710D01*
X88454344Y-37630712D01*
X88603666Y-37722814D01*
X88770203Y-37777999D01*
X88842507Y-37785385D01*
X88907198Y-37811780D01*
X88910416Y-37814436D01*
X88927738Y-37829230D01*
X88927740Y-37829231D01*
X88927741Y-37829232D01*
X88927743Y-37829233D01*
X89148308Y-37964397D01*
X89280963Y-38019344D01*
X89386134Y-38062907D01*
X89387303Y-38063391D01*
X89387300Y-38063391D01*
X89387306Y-38063392D01*
X89387310Y-38063394D01*
X89638854Y-38123785D01*
X89896750Y-38144082D01*
X90154645Y-38123785D01*
X90406189Y-38063394D01*
X90645190Y-37964397D01*
X90865762Y-37829230D01*
X91062473Y-37661223D01*
X91072085Y-37649967D01*
X91130591Y-37611776D01*
X91166375Y-37606500D01*
X93654507Y-37606500D01*
X93718656Y-37624383D01*
X93725990Y-37628816D01*
X93725995Y-37628819D01*
X94023913Y-37762901D01*
X94023926Y-37762905D01*
X94023931Y-37762907D01*
X94332743Y-37859136D01*
X94335821Y-37860095D01*
X94657170Y-37918984D01*
X94983274Y-37938710D01*
X95309378Y-37918984D01*
X95630727Y-37860095D01*
X95942635Y-37762901D01*
X96240553Y-37628819D01*
X96520137Y-37459804D01*
X96777310Y-37258322D01*
X97008322Y-37027310D01*
X97209804Y-36770137D01*
X97378819Y-36490553D01*
X97512901Y-36192635D01*
X97610095Y-35880727D01*
X97668984Y-35559378D01*
X97688710Y-35233274D01*
X97668984Y-34907170D01*
X97610095Y-34585821D01*
X97590101Y-34521657D01*
X97512907Y-34273931D01*
X97512905Y-34273926D01*
X97512901Y-34273913D01*
X97378819Y-33975995D01*
X97209804Y-33696411D01*
X97209802Y-33696408D01*
X97209800Y-33696405D01*
X97008319Y-33439234D01*
X96777313Y-33208228D01*
X96520142Y-33006747D01*
X96478375Y-32981498D01*
X96240553Y-32837729D01*
X95942635Y-32703647D01*
X95942628Y-32703644D01*
X95942616Y-32703640D01*
X95630726Y-32606452D01*
X95309373Y-32547563D01*
X95009295Y-32529412D01*
X94983274Y-32527838D01*
X94983273Y-32527838D01*
X94657174Y-32547563D01*
X94335821Y-32606452D01*
X94023931Y-32703640D01*
X94023915Y-32703646D01*
X94023913Y-32703647D01*
X93966339Y-32729559D01*
X93725994Y-32837729D01*
X93537602Y-32951617D01*
X93473452Y-32969500D01*
X84913872Y-32969500D01*
X84846833Y-32949815D01*
X84826191Y-32933181D01*
X83946271Y-32053261D01*
X83942965Y-32049685D01*
X83936681Y-32042328D01*
X83902474Y-32002276D01*
X83794931Y-31910426D01*
X83705764Y-31834270D01*
X83705763Y-31834269D01*
X83662337Y-31807658D01*
X83485190Y-31699101D01*
X83485188Y-31699100D01*
X83283868Y-31615712D01*
X83283866Y-31615711D01*
X83246187Y-31600103D01*
X83039772Y-31550549D01*
X82994645Y-31539715D01*
X82736750Y-31519417D01*
X82736749Y-31519417D01*
X82674594Y-31524309D01*
X82669728Y-31524500D01*
X80310922Y-31524500D01*
X80117601Y-31539715D01*
X79866069Y-31600102D01*
X79866057Y-31600106D01*
X79627066Y-31699099D01*
X79627064Y-31699100D01*
X79545259Y-31749229D01*
X79480472Y-31767500D01*
X79325499Y-31767500D01*
X79325480Y-31767501D01*
X79222703Y-31778000D01*
X79222700Y-31778001D01*
X79056168Y-31833185D01*
X79056163Y-31833187D01*
X78906842Y-31925289D01*
X78782789Y-32049342D01*
X78690687Y-32198663D01*
X78690685Y-32198666D01*
X78690686Y-32198666D01*
X78635501Y-32365203D01*
X78635501Y-32365204D01*
X78635500Y-32365204D01*
X78625000Y-32467983D01*
X78625000Y-33868001D01*
X78625001Y-33868018D01*
X78635500Y-33970796D01*
X78635501Y-33970799D01*
X78690685Y-34137331D01*
X78690687Y-34137336D01*
X78706633Y-34163189D01*
X78782788Y-34286656D01*
X78906844Y-34410712D01*
X79056166Y-34502814D01*
X79222703Y-34557999D01*
X79222704Y-34557999D01*
X79229129Y-34560128D01*
X79228715Y-34561375D01*
X79283772Y-34591199D01*
X79317463Y-34652409D01*
X79312713Y-34722117D01*
X79271029Y-34778191D01*
X79253209Y-34789388D01*
X79216311Y-34808410D01*
X79045847Y-34942465D01*
X79045843Y-34942468D01*
X78991767Y-35004876D01*
X78961176Y-35030405D01*
X78843638Y-35099916D01*
X78843629Y-35099923D01*
X78727423Y-35216129D01*
X78727417Y-35216137D01*
X78643755Y-35357603D01*
X78643754Y-35357606D01*
X78597902Y-35515426D01*
X78597901Y-35515432D01*
X78595000Y-35552298D01*
X78595000Y-35793500D01*
X78575315Y-35860539D01*
X78522511Y-35906294D01*
X78471000Y-35917500D01*
X78365830Y-35917500D01*
X78315371Y-35904221D01*
X78314554Y-35906122D01*
X78308389Y-35903469D01*
X78308386Y-35903468D01*
X78308382Y-35903466D01*
X78308378Y-35903465D01*
X78125095Y-35847189D01*
X77933990Y-35831626D01*
X77933986Y-35831627D01*
X77819999Y-35847157D01*
X77744006Y-35857511D01*
X77744001Y-35857512D01*
X77742706Y-35857835D01*
X77712780Y-35861500D01*
X76814745Y-35861500D01*
X76747706Y-35841815D01*
X76744676Y-35839651D01*
X76731665Y-35831626D01*
X76592334Y-35745686D01*
X76425797Y-35690501D01*
X76425795Y-35690500D01*
X76323016Y-35680000D01*
X76323009Y-35680000D01*
X75882991Y-35680000D01*
X75815952Y-35660315D01*
X75795310Y-35643681D01*
X75174810Y-35023181D01*
X75141325Y-34961858D01*
X75146309Y-34892166D01*
X75188181Y-34836233D01*
X75253645Y-34811816D01*
X75262491Y-34811500D01*
X76440064Y-34811500D01*
X76440072Y-34811500D01*
X76633395Y-34796285D01*
X76884940Y-34735895D01*
X77123941Y-34636897D01*
X77205738Y-34586771D01*
X77270527Y-34568499D01*
X77425502Y-34568499D01*
X77425508Y-34568499D01*
X77528297Y-34557999D01*
X77694834Y-34502814D01*
X77844156Y-34410712D01*
X77968212Y-34286656D01*
X78060314Y-34137334D01*
X78115499Y-33970797D01*
X78126000Y-33868009D01*
X78125999Y-32467992D01*
X78115499Y-32365203D01*
X78060314Y-32198666D01*
X77968212Y-32049344D01*
X77844156Y-31925288D01*
X77751388Y-31868069D01*
X77694836Y-31833187D01*
X77694831Y-31833185D01*
X77693362Y-31832698D01*
X77528297Y-31778001D01*
X77528295Y-31778000D01*
X77425516Y-31767500D01*
X77425509Y-31767500D01*
X77270526Y-31767500D01*
X77205736Y-31749227D01*
X77123941Y-31699102D01*
X76884942Y-31600106D01*
X76884944Y-31600106D01*
X76884940Y-31600105D01*
X76884936Y-31600104D01*
X76884930Y-31600102D01*
X76633398Y-31539715D01*
X76440077Y-31524500D01*
X76440072Y-31524500D01*
X74837500Y-31524500D01*
X74770461Y-31504815D01*
X74724706Y-31452011D01*
X74713500Y-31400500D01*
X74713500Y-30150000D01*
X93894341Y-30150000D01*
X93914936Y-30385403D01*
X93914938Y-30385413D01*
X93976094Y-30613655D01*
X93976096Y-30613659D01*
X93976097Y-30613663D01*
X94026030Y-30720745D01*
X94075964Y-30827828D01*
X94075965Y-30827830D01*
X94211505Y-31021402D01*
X94378597Y-31188494D01*
X94572169Y-31324034D01*
X94572171Y-31324035D01*
X94786337Y-31423903D01*
X95014592Y-31485063D01*
X95191032Y-31500499D01*
X95191033Y-31500500D01*
X95191034Y-31500500D01*
X95308967Y-31500500D01*
X95308967Y-31500499D01*
X95485408Y-31485063D01*
X95713663Y-31423903D01*
X95927829Y-31324035D01*
X96121401Y-31188495D01*
X96288495Y-31021401D01*
X96424035Y-30827830D01*
X96523903Y-30613663D01*
X96585063Y-30385408D01*
X96605659Y-30150000D01*
X96604775Y-30139901D01*
X96589832Y-29969100D01*
X96585063Y-29914592D01*
X96527564Y-29699999D01*
X96523905Y-29686344D01*
X96523904Y-29686343D01*
X96523903Y-29686337D01*
X96424035Y-29472171D01*
X96424034Y-29472169D01*
X96288494Y-29278597D01*
X96121402Y-29111505D01*
X95927830Y-28975965D01*
X95927828Y-28975964D01*
X95749911Y-28893000D01*
X95713663Y-28876097D01*
X95713659Y-28876096D01*
X95713655Y-28876094D01*
X95485413Y-28814938D01*
X95485403Y-28814936D01*
X95308967Y-28799500D01*
X95308966Y-28799500D01*
X95191034Y-28799500D01*
X95191033Y-28799500D01*
X95014596Y-28814936D01*
X95014586Y-28814938D01*
X94786344Y-28876094D01*
X94786335Y-28876098D01*
X94572171Y-28975964D01*
X94572169Y-28975965D01*
X94378597Y-29111505D01*
X94211506Y-29278597D01*
X94211501Y-29278604D01*
X94075967Y-29472165D01*
X94075965Y-29472169D01*
X93976098Y-29686335D01*
X93976094Y-29686344D01*
X93914938Y-29914586D01*
X93914936Y-29914596D01*
X93894341Y-30149999D01*
X93894341Y-30150000D01*
X74713500Y-30150000D01*
X74713500Y-28722993D01*
X74713499Y-28722980D01*
X74702999Y-28620200D01*
X74647815Y-28453664D01*
X74647811Y-28453658D01*
X74647810Y-28453655D01*
X74555714Y-28304346D01*
X74555711Y-28304342D01*
X74431657Y-28180288D01*
X74431653Y-28180285D01*
X74282344Y-28088189D01*
X74282338Y-28088186D01*
X74282336Y-28088185D01*
X74192749Y-28058499D01*
X74115801Y-28033001D01*
X74013019Y-28022500D01*
X74013012Y-28022500D01*
X68012988Y-28022500D01*
X68012980Y-28022500D01*
X67910198Y-28033001D01*
X67743666Y-28088184D01*
X67743655Y-28088189D01*
X67594346Y-28180285D01*
X67594342Y-28180288D01*
X67470288Y-28304342D01*
X67470285Y-28304346D01*
X67378189Y-28453655D01*
X67378184Y-28453666D01*
X67323001Y-28620198D01*
X67312500Y-28722980D01*
X67312500Y-29670500D01*
X67292815Y-29737539D01*
X67240011Y-29783294D01*
X67188500Y-29794500D01*
X66424006Y-29794500D01*
X66356967Y-29774815D01*
X66311212Y-29722011D01*
X66301268Y-29652853D01*
X66302450Y-29646235D01*
X66312999Y-29542986D01*
X66313000Y-29542973D01*
X66313000Y-29393000D01*
X63113001Y-29393000D01*
X63113001Y-29542986D01*
X63124182Y-29652431D01*
X63122455Y-29652607D01*
X63117889Y-29713572D01*
X63075829Y-29769363D01*
X63011584Y-29793463D01*
X62805105Y-29809715D01*
X62805100Y-29809716D01*
X62805101Y-29809716D01*
X62553564Y-29870103D01*
X62473945Y-29903083D01*
X62314562Y-29969100D01*
X62314560Y-29969101D01*
X62163887Y-30061434D01*
X62105548Y-30097185D01*
X62101071Y-30099928D01*
X62093987Y-30104269D01*
X62093986Y-30104269D01*
X61897274Y-30272276D01*
X61856783Y-30319685D01*
X61853478Y-30323261D01*
X59815218Y-32361521D01*
X59815205Y-32361535D01*
X59689266Y-32508990D01*
X59689265Y-32508993D01*
X59554102Y-32729558D01*
X59552504Y-32733416D01*
X59508661Y-32787818D01*
X59442367Y-32809881D01*
X59374668Y-32792600D01*
X59353603Y-32776859D01*
X59223741Y-32656365D01*
X59178803Y-32625727D01*
X59000775Y-32504349D01*
X59000769Y-32504346D01*
X59000768Y-32504345D01*
X59000767Y-32504344D01*
X58757643Y-32387263D01*
X58757645Y-32387263D01*
X58499773Y-32307720D01*
X58499767Y-32307718D01*
X58232936Y-32267500D01*
X58232929Y-32267500D01*
X57963071Y-32267500D01*
X57963063Y-32267500D01*
X57696232Y-32307718D01*
X57696226Y-32307720D01*
X57438358Y-32387262D01*
X57195230Y-32504346D01*
X56972258Y-32656365D01*
X56774442Y-32839910D01*
X56737837Y-32885813D01*
X56680648Y-32925953D01*
X56640890Y-32932500D01*
X55573162Y-32932500D01*
X55552595Y-32930782D01*
X55549385Y-32930242D01*
X55549375Y-32930241D01*
X55549374Y-32930241D01*
X55545469Y-32930333D01*
X55455215Y-32932482D01*
X55453740Y-32932500D01*
X55413909Y-32932500D01*
X55402630Y-32933576D01*
X55398225Y-32933838D01*
X55332579Y-32935402D01*
X55296338Y-32943285D01*
X55289055Y-32944420D01*
X55280679Y-32945220D01*
X55252134Y-32947946D01*
X55252125Y-32947948D01*
X55189119Y-32966447D01*
X55184833Y-32967541D01*
X55120686Y-32981497D01*
X55120673Y-32981501D01*
X55086594Y-32996094D01*
X55079652Y-32998590D01*
X55044063Y-33009040D01*
X54985688Y-33039133D01*
X54981689Y-33041017D01*
X54973715Y-33044433D01*
X54904340Y-33052733D01*
X54841490Y-33022208D01*
X54837211Y-33018127D01*
X54815313Y-32996228D01*
X54558142Y-32794747D01*
X54450308Y-32729559D01*
X54278553Y-32625729D01*
X53980635Y-32491647D01*
X53980628Y-32491644D01*
X53980616Y-32491640D01*
X53668726Y-32394452D01*
X53347373Y-32335563D01*
X53047295Y-32317412D01*
X53021274Y-32315838D01*
X53021273Y-32315838D01*
X52695174Y-32335563D01*
X52373821Y-32394452D01*
X52061931Y-32491640D01*
X52061915Y-32491646D01*
X52061913Y-32491647D01*
X52023372Y-32508993D01*
X51763999Y-32625727D01*
X51763997Y-32625728D01*
X51484405Y-32794747D01*
X51227234Y-32996228D01*
X50996228Y-33227234D01*
X50794747Y-33484405D01*
X50667982Y-33694099D01*
X50625729Y-33763995D01*
X50532656Y-33970796D01*
X50491646Y-34061916D01*
X50491640Y-34061931D01*
X50394452Y-34373821D01*
X50335563Y-34695174D01*
X50315838Y-35021273D01*
X48350500Y-35021273D01*
X48350500Y-29701740D01*
X48350549Y-29700000D01*
X49644341Y-29700000D01*
X49664936Y-29935403D01*
X49664938Y-29935413D01*
X49726094Y-30163655D01*
X49726096Y-30163659D01*
X49726097Y-30163663D01*
X49776030Y-30270746D01*
X49825964Y-30377828D01*
X49825965Y-30377830D01*
X49961505Y-30571402D01*
X50128597Y-30738494D01*
X50322169Y-30874034D01*
X50322171Y-30874035D01*
X50536337Y-30973903D01*
X50764592Y-31035063D01*
X50941032Y-31050499D01*
X50941033Y-31050500D01*
X50941034Y-31050500D01*
X51058967Y-31050500D01*
X51058967Y-31050499D01*
X51235408Y-31035063D01*
X51463663Y-30973903D01*
X51677829Y-30874035D01*
X51871401Y-30738495D01*
X52038495Y-30571401D01*
X52174035Y-30377830D01*
X52273903Y-30163663D01*
X52335063Y-29935408D01*
X52355659Y-29700000D01*
X52354463Y-29686335D01*
X52345791Y-29587211D01*
X52335063Y-29464592D01*
X52273903Y-29236337D01*
X52174035Y-29022171D01*
X52174034Y-29022169D01*
X52083589Y-28893000D01*
X63113000Y-28893000D01*
X64463000Y-28893000D01*
X64463000Y-28043000D01*
X64963000Y-28043000D01*
X64963000Y-28893000D01*
X66312999Y-28893000D01*
X66312999Y-28743028D01*
X66312998Y-28743013D01*
X66302505Y-28640302D01*
X66247358Y-28473880D01*
X66247356Y-28473875D01*
X66155315Y-28324654D01*
X66031345Y-28200684D01*
X65882124Y-28108643D01*
X65882119Y-28108641D01*
X65715697Y-28053494D01*
X65715690Y-28053493D01*
X65612986Y-28043000D01*
X64963000Y-28043000D01*
X64463000Y-28043000D01*
X63813028Y-28043000D01*
X63813012Y-28043001D01*
X63710302Y-28053494D01*
X63543880Y-28108641D01*
X63543875Y-28108643D01*
X63394654Y-28200684D01*
X63270684Y-28324654D01*
X63178643Y-28473875D01*
X63178641Y-28473880D01*
X63123494Y-28640302D01*
X63123493Y-28640309D01*
X63113000Y-28743013D01*
X63113000Y-28893000D01*
X52083589Y-28893000D01*
X52038494Y-28828597D01*
X51871402Y-28661505D01*
X51677830Y-28525965D01*
X51677828Y-28525964D01*
X51522780Y-28453664D01*
X51463663Y-28426097D01*
X51463659Y-28426096D01*
X51463655Y-28426094D01*
X51235413Y-28364938D01*
X51235403Y-28364936D01*
X51058967Y-28349500D01*
X51058966Y-28349500D01*
X50941034Y-28349500D01*
X50941033Y-28349500D01*
X50764596Y-28364936D01*
X50764586Y-28364938D01*
X50536344Y-28426094D01*
X50536335Y-28426098D01*
X50322171Y-28525964D01*
X50322169Y-28525965D01*
X50128597Y-28661505D01*
X49961506Y-28828597D01*
X49961501Y-28828604D01*
X49825967Y-29022165D01*
X49825965Y-29022169D01*
X49726098Y-29236335D01*
X49726094Y-29236344D01*
X49664938Y-29464586D01*
X49664936Y-29464596D01*
X49644341Y-29699999D01*
X49644341Y-29700000D01*
X48350549Y-29700000D01*
X48350598Y-29698263D01*
X48351766Y-29677448D01*
X48356858Y-29586766D01*
X48368370Y-29396765D01*
X48369128Y-29390162D01*
X48392672Y-29251593D01*
X48422264Y-29090123D01*
X48423663Y-29084167D01*
X48464116Y-28943750D01*
X48464488Y-28942512D01*
X48511442Y-28791830D01*
X48513330Y-28786616D01*
X48570223Y-28649264D01*
X48570878Y-28647750D01*
X48634672Y-28506004D01*
X48636928Y-28501493D01*
X48709435Y-28370300D01*
X48710528Y-28368411D01*
X48790328Y-28236404D01*
X48792777Y-28232668D01*
X48879846Y-28109955D01*
X48881566Y-28107648D01*
X48976301Y-27986728D01*
X48978820Y-27983716D01*
X49079297Y-27871282D01*
X49081599Y-27868847D01*
X49190101Y-27760343D01*
X49192550Y-27758026D01*
X49304987Y-27657545D01*
X49308012Y-27655013D01*
X49428956Y-27560258D01*
X49431193Y-27558591D01*
X49553940Y-27471496D01*
X49557662Y-27469054D01*
X49689697Y-27389236D01*
X49691615Y-27388128D01*
X49822777Y-27315636D01*
X49827254Y-27313396D01*
X49968942Y-27249625D01*
X49970606Y-27248906D01*
X50107880Y-27192044D01*
X50113131Y-27190142D01*
X50263924Y-27143152D01*
X50264928Y-27142851D01*
X50405435Y-27102371D01*
X50411390Y-27100971D01*
X50521700Y-27080755D01*
X50572957Y-27071362D01*
X50711411Y-27047836D01*
X50718027Y-27047076D01*
X50912622Y-27035302D01*
X50979390Y-27031551D01*
X51018992Y-27029328D01*
X51022469Y-27029230D01*
X95237107Y-27029230D01*
X95240350Y-27029314D01*
G37*
G04 #@! TD.AperFunction*
G04 #@! TD*
M02*
